<svg xmlns="http://www.w3.org/2000/svg" viewBox="0 0 159.41667 106.44792"><g id="Layer_2" data-name="Layer 2"><g id="Layer_1-2" data-name="Layer 1"><path d="M0,53H53.44792a0,0,0,0,1,0,0v53.44792a0,0,0,0,1,0,0H10a10,10,0,0,1-10-10V53a0,0,0,0,1,0,0Z" transform="translate(106.44792 53) rotate(90)" fill="#d54226"/><path d="M79.48438-26.48438h53.44792a0,0,0,0,1,0,0V79.93229a0,0,0,0,1,0,0H89.48438a10,10,0,0,1-10-10V-26.48438A0,0,0,0,1,79.48438-26.48438Z" transform="translate(132.93229 -79.48438) rotate(90)" fill="#ea8012"/></g></g></svg>