<svg xmlns="http://www.w3.org/2000/svg" viewBox="0 0 152.02963 38.00741"><g id="Layer_2" data-name="Layer 2"><g id="App_Store" data-name="App Store"><rect width="152.02963" height="38.00741" rx="18.18887"/><path d="M53.8748,10.62509a3.24351,3.24351,0,0,1-.86353,2.43238,3.41661,3.41661,0,0,1-2.48511.84155H48.74638V7.47422h1.96875a3.14883,3.14883,0,0,1,2.3291.83056A3.13658,3.13658,0,0,1,53.8748,10.62509Zm-.791.02637a2.58668,2.58668,0,0,0-.63061-1.894,2.52752,2.52752,0,0,0-1.87427-.63721H49.49345V13.253h.90967a2.76584,2.76584,0,0,0,2.0083-.657A2.601,2.601,0,0,0,53.08378,10.65146Z" fill="#fff"/><path d="M59.35478,11.48642a2.657,2.657,0,0,1-.59326,1.83911,2.08918,2.08918,0,0,1-1.63916.66138,2.171,2.171,0,0,1-1.147-.30322,2.00128,2.00128,0,0,1-.77343-.87012,3.03226,3.03226,0,0,1-.27246-1.32715,2.65291,2.65291,0,0,1,.58886-1.83471,2.08279,2.08279,0,0,1,1.63477-.657,2.03747,2.03747,0,0,1,1.6062.67237A2.64547,2.64547,0,0,1,59.35478,11.48642Zm-3.66944,0a2.28608,2.28608,0,0,0,.36915,1.40625,1.46506,1.46506,0,0,0,2.17309.0022,2.27444,2.27444,0,0,0,.37134-1.40845,2.23794,2.23794,0,0,0-.37134-1.39526,1.30474,1.30474,0,0,0-1.09643-.47681,1.284,1.284,0,0,0-1.08106.47022A2.26306,2.26306,0,0,0,55.68534,11.48642Z" fill="#fff"/><path d="M64.56669,13.899l-.8833-2.82568q-.08349-.25928-.312-1.17774h-.03516q-.17577.76905-.30761,1.18653L62.11894,13.899h-.84375l-1.314-4.81641h.76465q.46582,1.815.70972,2.76416a11.19983,11.19983,0,0,1,.27905,1.27881h.03516q.04833-.25049.156-.64819t.18677-.63062l.8833-2.76416h.791l.86133,2.76416a9.32953,9.32953,0,0,1,.334,1.27h.03516a4.656,4.656,0,0,1,.09448-.48779q.0769-.32959.91626-3.54639H66.764L65.43241,13.899Z" fill="#fff"/><path d="M70.93,13.899V10.7833a1.25707,1.25707,0,0,0-.26806-.87891,1.09206,1.09206,0,0,0-.83936-.29,1.38433,1.38433,0,0,0-1.10742.40869,2.06342,2.06342,0,0,0-.35156,1.34913V13.899h-.7295V9.08261h.59327l.11865.65918h.03516a1.4895,1.4895,0,0,1,.62841-.55151,2.04266,2.04266,0,0,1,.90088-.19556A1.82972,1.82972,0,0,1,71.22,9.4144a1.78614,1.78614,0,0,1,.43946,1.34253V13.899Z" fill="#fff"/><path d="M73.88749,13.899H73.158V7.06113h.72949Z" fill="#fff"/><path d="M79.59159,11.48642a2.657,2.657,0,0,1-.59326,1.83911,2.08916,2.08916,0,0,1-1.63916.66138,2.171,2.171,0,0,1-1.147-.30322,2.0013,2.0013,0,0,1-.77344-.87012,3.03226,3.03226,0,0,1-.27246-1.32715,2.65292,2.65292,0,0,1,.58887-1.83471,2.08279,2.08279,0,0,1,1.63476-.657,2.03751,2.03751,0,0,1,1.60621.67237A2.64547,2.64547,0,0,1,79.59159,11.48642Zm-3.66943,0a2.28615,2.28615,0,0,0,.36914,1.40625,1.46507,1.46507,0,0,0,2.1731.0022,2.27444,2.27444,0,0,0,.37134-1.40845,2.23794,2.23794,0,0,0-.37134-1.39526A1.30474,1.30474,0,0,0,77.368,9.61435a1.284,1.284,0,0,0-1.081.47022A2.263,2.263,0,0,0,75.92216,11.48642Z" fill="#fff"/><path d="M83.83232,13.899l-.145-.68555h-.03516a2.02671,2.02671,0,0,1-.7185.613,2.19013,2.19013,0,0,1-.89429.1604,1.60866,1.60866,0,0,1-1.1228-.36914,1.34629,1.34629,0,0,1-.4065-1.05029q0-1.459,2.3335-1.5293l.81738-.02637V10.713a1.22108,1.22108,0,0,0-.2439-.83716,1.00307,1.00307,0,0,0-.78-.27027,3.17836,3.17836,0,0,0-1.3623.36914l-.22412-.5581a3.42748,3.42748,0,0,1,.78-.30322,3.38071,3.38071,0,0,1,.85034-.10987,1.83461,1.83461,0,0,1,1.27661.38233,1.59582,1.59582,0,0,1,.41528,1.22607V13.899Zm-1.64795-.51416a1.48069,1.48069,0,0,0,1.07007-.37353,1.3818,1.3818,0,0,0,.38891-1.0459v-.43506l-.72949.03076a2.65355,2.65355,0,0,0-1.25464.27026.81506.81506,0,0,0-.38452.74488.75155.75155,0,0,0,.2395.60205A.99387.99387,0,0,0,82.18437,13.38486Z" fill="#fff"/><path d="M89.15409,13.253h-.03955a1.714,1.714,0,0,1-1.51172.73389,1.78834,1.78834,0,0,1-1.47-.646,2.84353,2.84353,0,0,1-.52514-1.83692,2.89169,2.89169,0,0,1,.52734-1.8501,1.77455,1.77455,0,0,1,1.46777-.65918,1.75143,1.75143,0,0,1,1.50293.71192h.05713l-.03076-.34717-.01758-.33838v-1.96h.7295V13.899h-.59327Zm-1.459.12305a1.32815,1.32815,0,0,0,1.08325-.40649,2.05382,2.05382,0,0,0,.33618-1.31177V11.504a2.417,2.417,0,0,0-.34057-1.46118,1.29334,1.29334,0,0,0-1.08765-.43726,1.11667,1.11667,0,0,0-.98218.49878,2.48012,2.48012,0,0,0-.34057,1.40845,2.37764,2.37764,0,0,0,.33838,1.39307A1.14586,1.14586,0,0,0,87.69511,13.37607Z" fill="#fff"/><path d="M97.886,11.48642a2.657,2.657,0,0,1-.59326,1.83911,2.08918,2.08918,0,0,1-1.63916.66138,2.171,2.171,0,0,1-1.147-.30322,2.00128,2.00128,0,0,1-.77343-.87012,3.03226,3.03226,0,0,1-.27246-1.32715,2.65291,2.65291,0,0,1,.58886-1.83471,2.08279,2.08279,0,0,1,1.63477-.657,2.03747,2.03747,0,0,1,1.6062.67237A2.64547,2.64547,0,0,1,97.886,11.48642Zm-3.66944,0a2.28608,2.28608,0,0,0,.36915,1.40625,1.46506,1.46506,0,0,0,2.17309.0022,2.27444,2.27444,0,0,0,.37134-1.40845,2.23794,2.23794,0,0,0-.37134-1.39526,1.30474,1.30474,0,0,0-1.09643-.47681,1.284,1.284,0,0,0-1.08106.47022A2.26306,2.26306,0,0,0,94.21659,11.48642Z" fill="#fff"/><path d="M102.46074,13.899V10.7833a1.25707,1.25707,0,0,0-.26807-.87891,1.09206,1.09206,0,0,0-.83936-.29,1.38435,1.38435,0,0,0-1.10742.40869,2.06348,2.06348,0,0,0-.35156,1.34913V13.899h-.72949V9.08261h.59326l.11865.65918h.03516a1.4895,1.4895,0,0,1,.62841-.55151,2.04269,2.04269,0,0,1,.90088-.19556,1.82971,1.82971,0,0,1,1.30957.41968,1.78614,1.78614,0,0,1,.43946,1.34253V13.899Z" fill="#fff"/><path d="M55.91972,28.83133,54.85038,25.8577H50.75615l-1.04737,2.97363h-1.8457l4.00635-10.752h1.90429l4.00635,10.752ZM54.389,24.34891l-1.00342-2.915q-.10986-.29287-.304-.92285-.19409-.62979-.26733-.92285a16.41351,16.41351,0,0,1-.57861,1.97021l-.9668,2.79053Z" fill="#fff"/><path d="M63.11943,28.97782a2.83707,2.83707,0,0,1-2.3877-1.106h-.10254q.10254,1.02548.10254,1.24512v3.31787H59.01054V20.73075h1.3916q.05859.22713.2417,1.084h.08789a2.69646,2.69646,0,0,1,2.417-1.23047,2.81144,2.81144,0,0,1,2.36206,1.09864,4.9536,4.9536,0,0,1,.846,3.08349,4.95684,4.95684,0,0,1-.86059,3.09815A2.83705,2.83705,0,0,1,63.11943,28.97782ZM62.702,21.99051a1.78925,1.78925,0,0,0-1.49781.60059A3.11285,3.11285,0,0,0,60.73173,24.51v.25635a3.78866,3.78866,0,0,0,.46875,2.14234,1.74354,1.74354,0,0,0,1.53076.66284,1.55392,1.55392,0,0,0,1.377-.73242,3.7822,3.7822,0,0,0,.48339-2.08741A3.65,3.65,0,0,0,64.11186,22.69,1.60041,1.60041,0,0,0,62.702,21.99051Z" fill="#fff"/><path d="M72.46513,28.97782a2.83707,2.83707,0,0,1-2.3877-1.106H69.9749q.10252,1.02548.10253,1.24512v3.31787H68.35624V20.73075h1.3916q.05861.22713.2417,1.084h.08789a2.69648,2.69648,0,0,1,2.417-1.23047,2.81147,2.81147,0,0,1,2.36206,1.09864,4.95366,4.95366,0,0,1,.84594,3.08349,4.95684,4.95684,0,0,1-.86059,3.09815A2.837,2.837,0,0,1,72.46513,28.97782Zm-.41748-6.98731a1.78925,1.78925,0,0,0-1.4978.60059A3.11278,3.11278,0,0,0,70.07743,24.51v.25635a3.78866,3.78866,0,0,0,.46875,2.14234,1.74354,1.74354,0,0,0,1.53077.66284,1.55392,1.55392,0,0,0,1.377-.73242,3.78219,3.78219,0,0,0,.4834-2.08741A3.64987,3.64987,0,0,0,73.45756,22.69,1.60039,1.60039,0,0,0,72.04765,21.99051Z" fill="#fff"/><path d="M87.95585,25.92362a2.695,2.695,0,0,1-1.03271,2.24121,4.4945,4.4945,0,0,1-2.84912.813,6.79713,6.79713,0,0,1-2.97364-.564V26.75858a8.07861,8.07861,0,0,0,1.5564.542,6.59894,6.59894,0,0,0,1.53442.19775,2.441,2.441,0,0,0,1.53443-.3955,1.28963,1.28963,0,0,0,.49438-1.062,1.331,1.331,0,0,0-.4541-1.01807,6.83616,6.83616,0,0,0-1.875-.98877,4.9597,4.9597,0,0,1-2.06543-1.355,2.86673,2.86673,0,0,1-.60058-1.83106,2.56441,2.56441,0,0,1,.95214-2.10937,3.9496,3.9496,0,0,1,2.55616-.769,7.51149,7.51149,0,0,1,3.06152.67382l-.55664,1.42823a6.69,6.69,0,0,0-2.54883-.60059,1.9563,1.9563,0,0,0-1.28906.36987,1.215,1.215,0,0,0-.43945.97779,1.37655,1.37655,0,0,0,.17578.71411,1.79531,1.79531,0,0,0,.57861.5603,9.78034,9.78034,0,0,0,1.45019.6958,7.94013,7.94013,0,0,1,1.72852.91553,2.69373,2.69373,0,0,1,.80566.95947A2.88629,2.88629,0,0,1,87.95585,25.92362Z" fill="#fff"/><path d="M92.86308,27.58622a4.18548,4.18548,0,0,0,1.25976-.19776v1.29639a3.47424,3.47424,0,0,1-.73608.20874,5.0767,5.0767,0,0,1-.93384.08423q-2.44629,0-2.44629-2.57813V22.03446h-1.106v-.76172l1.18652-.62988.58594-1.71387h1.062v1.80176h2.30713v1.30371H91.73515V26.3704a1.21637,1.21637,0,0,0,.31128.91918A1.13474,1.13474,0,0,0,92.86308,27.58622Z" fill="#fff"/><path d="M102.92656,24.76639a4.42111,4.42111,0,0,1-1.01807,3.09815A3.64754,3.64754,0,0,1,99.074,28.97782a3.883,3.883,0,0,1-2.00684-.5127A3.384,3.384,0,0,1,95.72685,26.993a5.01356,5.01356,0,0,1-.46875-2.22656,4.39169,4.39169,0,0,1,1.01074-3.07617,3.665,3.665,0,0,1,2.84912-1.106,3.56863,3.56863,0,0,1,2.7832,1.13159A4.3712,4.3712,0,0,1,102.92656,24.76639Zm-5.896,0q0,2.80527,2.07275,2.80518,2.05079,0,2.05078-2.80518,0-2.77578-2.06543-2.77588a1.76125,1.76125,0,0,0-1.571.71778A3.65282,3.65282,0,0,0,97.03056,24.76639Z" fill="#fff"/><path d="M109.013,20.58426a4.148,4.148,0,0,1,.85693.07324l-.16845,1.604a3.25274,3.25274,0,0,0-.76172-.08789,2.20451,2.20451,0,0,0-1.67359.67383,2.43573,2.43573,0,0,0-.64086,1.75048v4.2334h-1.7212V20.73075h1.34766l.22705,1.42822h.08789a3.21,3.21,0,0,1,1.051-1.1499A2.49861,2.49861,0,0,1,109.013,20.58426Z" fill="#fff"/><path d="M114.909,28.97782a3.91831,3.91831,0,0,1-2.95533-1.1023,4.18441,4.18441,0,0,1-1.06567-3.03589,4.59114,4.59114,0,0,1,.98877-3.12011,3.41545,3.41545,0,0,1,2.71729-1.13526,3.33829,3.33829,0,0,1,2.53418.97412,3.72251,3.72251,0,0,1,.93017,2.68067v.93017h-5.398a2.66046,2.66046,0,0,0,.63721,1.81275,2.21919,2.21919,0,0,0,1.69189.63354,6.2413,6.2413,0,0,0,1.33667-.1355,6.99717,6.99717,0,0,0,1.32935-.45044V28.4285a5.27939,5.27939,0,0,1-1.27441.42481A7.82033,7.82033,0,0,1,114.909,28.97782ZM114.594,21.888a1.72948,1.72948,0,0,0-1.3147.52,2.47861,2.47861,0,0,0-.5896,1.51612h3.67676a2.24239,2.24239,0,0,0-.4834-1.51978A1.65333,1.65333,0,0,0,114.594,21.888Z" fill="#fff"/><path d="M35.7928,14.5114a2.67577,2.67577,0,0,0-.18771-.33751,5.8834,5.8834,0,0,0-6.88377-1.66427c-1.30651.52-2.508.90621-3.92292.19909a5.86956,5.86956,0,0,0-8.24124,4.23879c-1.15674,5.20036.675,9.53743,4.23738,13.25863a2.5266,2.5266,0,0,0,3.02789.57282,6.51181,6.51181,0,0,1,5.97863-.00375,2.55054,2.55054,0,0,0,2.71487-.31252,13.06739,13.06739,0,0,0,4.01219-6.01506C32.34236,22.14177,32.11721,17.23646,35.7928,14.5114Zm-9.43839-2.8292A4.93456,4.93456,0,0,0,31.227,6.1089,5.28769,5.28769,0,0,0,26.35441,11.6822Z" fill="#fff"/></g></g></svg>