<svg xmlns="http://www.w3.org/2000/svg" width="152.03" height="38.007" viewBox="0 0 152.03 38.007"><defs><style>.a,.b,.c{fill:#fff;}.a{font-size:9px;font-family:OpenSans-Regular, Open Sans;}.b{font-size:15px;font-family:OpenSans-SemiBold, Open Sans;font-weight:600;}</style></defs><g transform="translate(-310.481 -409.767)"><rect width="152.03" height="38.007" rx="18.189" transform="translate(310.481 409.767)"/><text class="a" transform="translate(358.344 423.666)"><tspan x="0" y="0">Download on</tspan></text><text class="b" transform="translate(358.344 438.599)"><tspan x="0" y="0">App Store</tspan></text><path class="c" d="M346.273,424.279a2.682,2.682,0,0,0-.187-.338,5.884,5.884,0,0,0-6.884-1.664c-1.307.52-2.508.906-3.923.2a5.87,5.87,0,0,0-8.241,4.239c-1.157,5.2.675,9.537,4.237,13.258a2.526,2.526,0,0,0,3.028.573,6.512,6.512,0,0,1,5.979,0A2.551,2.551,0,0,0,343,440.23a13.069,13.069,0,0,0,4.012-6.015C342.823,431.909,342.6,427,346.273,424.279Zm-9.438-2.829a4.936,4.936,0,0,0,4.873-5.574A5.288,5.288,0,0,0,336.835,421.45Z"/></g></svg>