<svg xmlns="http://www.w3.org/2000/svg" width="106.896" height="53.448" viewBox="0 0 106.896 53.448"><defs><style>.a{fill:#ffcd26;}.b{fill:#d64226;}</style></defs><g transform="translate(17.633 -213.409)"><path class="a" d="M0,0H43.448a10,10,0,0,1,10,10V53.448a0,0,0,0,1,0,0H0a0,0,0,0,1,0,0V0A0,0,0,0,1,0,0Z" transform="translate(35.815 213.409)"/><path class="b" d="M0,0H43.448a10,10,0,0,1,10,10V53.448a0,0,0,0,1,0,0H0a0,0,0,0,1,0,0V0A0,0,0,0,1,0,0Z" transform="translate(-17.633 266.857) rotate(-90)"/></g></svg>