<svg xmlns="http://www.w3.org/2000/svg" viewBox="0 0 159.41667 106.44792"><g id="Layer_2" data-name="Layer 2"><g id="Layer_1-2" data-name="Layer 1"><path d="M105.96875,0h53.44792a0,0,0,0,1,0,0V53.44792a0,0,0,0,1,0,0H115.96875a10,10,0,0,1-10-10V0A0,0,0,0,1,105.96875,0Z" transform="translate(265.38542 53.44792) rotate(180)" fill="#ea8012"/><path d="M36.48438,26.51563H79.93229a0,0,0,0,1,0,0V132.93229a0,0,0,0,1,0,0H26.48438a0,0,0,0,1,0,0V36.51563a10,10,0,0,1,10-10Z" transform="translate(-26.51563 132.93229) rotate(-90)" fill="#ffb800"/></g></g></svg>