<svg xmlns="http://www.w3.org/2000/svg" width="106.932" height="106.932" viewBox="0 0 106.932 106.932"><defs><style>.a{fill:#ffcd26;}.b{fill:#ed8012;}</style></defs><g transform="translate(-35.466 -1229.716)"><path class="a" d="M0,0H53.466a0,0,0,0,1,0,0V43.466a10,10,0,0,1-10,10H0a0,0,0,0,1,0,0V0A0,0,0,0,1,0,0Z" transform="translate(88.932 1283.182) rotate(-90)"/><path class="b" d="M0,0H53.466a0,0,0,0,1,0,0V43.466a10,10,0,0,1-10,10H0a0,0,0,0,1,0,0V0A0,0,0,0,1,0,0Z" transform="translate(35.466 1283.182)"/></g></svg>