<svg xmlns="http://www.w3.org/2000/svg" width="106.932" height="159.804" viewBox="0 0 106.932 159.804"><defs><style>.a{fill:#d44327;}.b{fill:#f6921e;}</style></defs><g transform="translate(-836.861 -1444.174)"><path class="a" d="M0,0H43.466a10,10,0,0,1,10,10V53.466a0,0,0,0,1,0,0H0a0,0,0,0,1,0,0V0A0,0,0,0,1,0,0Z" transform="translate(890.326 1603.977) rotate(180)"/><path class="b" d="M0,0H43.466a10,10,0,0,1,10,10V53.466a0,0,0,0,1,0,0H0a0,0,0,0,1,0,0V0A0,0,0,0,1,0,0Z" transform="translate(943.792 1497.64) rotate(90)"/><path class="b" d="M0,0H53.466a0,0,0,0,1,0,0V43.466a10,10,0,0,1-10,10H0a0,0,0,0,1,0,0V0A0,0,0,0,1,0,0Z" transform="translate(943.792 1497.64) rotate(180)"/></g></svg>