<svg xmlns="http://www.w3.org/2000/svg" width="53.466" height="106.932" viewBox="0 0 53.466 106.932"><defs><style>.a{fill:#d64226;}</style></defs><g transform="translate(-1051.318 -2138.636)"><path class="a" d="M0,0H53.466a0,0,0,0,1,0,0V43.466a10,10,0,0,1-10,10H0a0,0,0,0,1,0,0V0A0,0,0,0,1,0,0Z" transform="translate(1051.318 2192.102) rotate(-90)"/><path class="a" d="M0,0H53.466a0,0,0,0,1,0,0V43.466a10,10,0,0,1-10,10H0a0,0,0,0,1,0,0V0A0,0,0,0,1,0,0Z" transform="translate(1104.784 2192.102) rotate(90)"/></g></svg>