<svg xmlns="http://www.w3.org/2000/svg" width="65.333" height="65.325" viewBox="0 0 65.333 65.325"><defs><style>.a{fill:#fff;}</style></defs><g transform="translate(-483.848 -1570.797)"><path class="a" d="M517.277,1570.8c.239.073.477.147.716.219a5.094,5.094,0,1,1-2.537-.111,2.3,2.3,0,0,0,.3-.108Z"/><path class="a" d="M513.261,1603.2v-.808c0-3.409-.005-6.818,0-10.228a1.811,1.811,0,1,1,3.609-.023c.008,2.249,0,4.5,0,6.746v.635c1.689.009,1.957.149,2.578,1.307,1.5-.126,1.863.026,2.519,1.06a7.383,7.383,0,0,1,1.065-.075,1.732,1.732,0,0,1,1.637,1.719c.014,2.212.022,4.425-.01,6.637a8.238,8.238,0,0,1-.907,3.163c-.442,1-.8,2.043-1.234,3.053a.646.646,0,0,1-.467.335c-2.431.021-4.861.014-7.291.016a.463.463,0,0,1-.522-.542,5.858,5.858,0,0,0-1.165-3.5,24.94,24.94,0,0,1-2.435-4.963c-.41-1.022-.911-2.008-1.347-3.02a20.751,20.751,0,0,1-.884-2.268,1.591,1.591,0,0,1,.581-1.848,1.8,1.8,0,0,1,2.047-.121,4.589,4.589,0,0,1,1.867,2.134c.1.192.17.394.254.592Z"/><path class="a" d="M549.181,1603.464a5.108,5.108,0,1,1-5.073-5.112A5.12,5.12,0,0,1,549.181,1603.464Z"/><path class="a" d="M516.5,1636.122a5.107,5.107,0,1,1,5.119-5.067A5.115,5.115,0,0,1,516.5,1636.122Z"/><path class="a" d="M483.848,1603.433a5.108,5.108,0,1,1,5.1,5.135A5.112,5.112,0,0,1,483.848,1603.433Z"/><path class="a" d="M535.9,1627.957a5.107,5.107,0,1,1,5.112-5.07A5.124,5.124,0,0,1,535.9,1627.957Z"/><path class="a" d="M535.909,1578.963a5.107,5.107,0,1,1-5.11,5.075A5.1,5.1,0,0,1,535.909,1578.963Z"/><path class="a" d="M497.091,1627.957a5.107,5.107,0,1,1,5.139-5.1A5.105,5.105,0,0,1,497.091,1627.957Z"/><path class="a" d="M492.015,1584.053a5.108,5.108,0,1,1,5.118,5.124A5.1,5.1,0,0,1,492.015,1584.053Z"/></g></svg>