<svg xmlns="http://www.w3.org/2000/svg" viewBox="0 0 152.02963 38.00741"><g id="Layer_2" data-name="Layer 2"><g id="Google_Play" data-name="Google Play"><rect width="152.02963" height="38.00741" rx="18.18887"/><path d="M50.38433,10.53281h2.18409v3.12451a7.01475,7.01475,0,0,1-1.03711.2461,7.90381,7.90381,0,0,1-1.22168.08349,2.961,2.961,0,0,1-2.272-.86792,3.42049,3.42049,0,0,1-.813-2.43237,3.67519,3.67519,0,0,1,.4021-1.75562,2.71969,2.71969,0,0,1,1.15795-1.15136,3.75112,3.75112,0,0,1,1.771-.39771,4.83993,4.83993,0,0,1,1.916.37793l-.29.65918a4.28047,4.28047,0,0,0-1.67432-.36914,2.39746,2.39746,0,0,0-1.83252.69873,2.71187,2.71187,0,0,0-.65918,1.938,2.77125,2.77125,0,0,0,.635,1.97314,2.44529,2.44529,0,0,0,1.86548.67237,5.53956,5.53956,0,0,0,1.30518-.15381V11.20078h-1.437Z" fill="#fff"/><path d="M56.0357,13.98691a2.21288,2.21288,0,0,1-1.6853-.65039,2.51763,2.51763,0,0,1-.61743-1.80615,2.7925,2.7925,0,0,1,.57348-1.8501,1.905,1.905,0,0,1,1.54029-.68555,1.81636,1.81636,0,0,1,1.43261.59546,2.2823,2.2823,0,0,1,.52735,1.571v.46142H54.48883a1.90909,1.90909,0,0,0,.42846,1.2876,1.48191,1.48191,0,0,0,1.14478.43945,3.87822,3.87822,0,0,0,1.53808-.32519v.65039a3.856,3.856,0,0,1-.73169.2395A4.11183,4.11183,0,0,1,56.0357,13.98691ZM55.838,9.60556a1.19129,1.19129,0,0,0-.925.37793,1.7423,1.7423,0,0,0-.4065,1.0459h2.51807a1.604,1.604,0,0,0-.30762-1.05688A1.0829,1.0829,0,0,0,55.838,9.60556Z" fill="#fff"/><path d="M60.606,13.38486a2.37619,2.37619,0,0,0,.37354-.02856,2.41844,2.41844,0,0,0,.28564-.05933v.55811a1.33361,1.33361,0,0,1-.34936.09448,2.631,2.631,0,0,1-.41529.03735q-1.39746,0-1.39746-1.47217V9.64951h-.68994V9.298l.68994-.30323L59.4107,7.9664h.42188V9.08261H61.23v.5669H59.83258V12.484a.97507.97507,0,0,0,.20654.668A.71856.71856,0,0,0,60.606,13.38486Z" fill="#fff"/><path d="M64.504,7.77744a.48454.48454,0,0,1,.123-.36694.45551.45551,0,0,1,.61084.00219.47576.47576,0,0,1,.12744.36475.48314.48314,0,0,1-.12744.36694.44635.44635,0,0,1-.61084,0A.49341.49341,0,0,1,64.504,7.77744Zm.791,6.12158h-.72949V9.08261H65.295Z" fill="#fff"/><path d="M68.39752,13.38486a2.37606,2.37606,0,0,0,.37353-.02856,2.41911,2.41911,0,0,0,.28565-.05933v.55811a1.33371,1.33371,0,0,1-.34937.09448,2.6309,2.6309,0,0,1-.41528.03735q-1.39746,0-1.39746-1.47217V9.64951h-.68994V9.298l.68994-.30323L67.2022,7.9664h.42188V9.08261h1.39746v.5669H67.62408V12.484a.97512.97512,0,0,0,.20654.668A.71858.71858,0,0,0,68.39752,13.38486Z" fill="#fff"/><path d="M76.51422,11.48642a2.657,2.657,0,0,1-.59327,1.83911,2.08915,2.08915,0,0,1-1.63916.66138,2.171,2.171,0,0,1-1.147-.30322,2.0013,2.0013,0,0,1-.77344-.87012,3.03226,3.03226,0,0,1-.27246-1.32715,2.65292,2.65292,0,0,1,.58887-1.83471,2.08279,2.08279,0,0,1,1.63477-.657,2.0375,2.0375,0,0,1,1.6062.67237A2.64547,2.64547,0,0,1,76.51422,11.48642Zm-3.66944,0a2.28615,2.28615,0,0,0,.36914,1.40625,1.46507,1.46507,0,0,0,2.1731.0022,2.27444,2.27444,0,0,0,.37134-1.40845,2.23794,2.23794,0,0,0-.37134-1.39526,1.30474,1.30474,0,0,0-1.09644-.47681,1.284,1.284,0,0,0-1.08105.47022A2.263,2.263,0,0,0,72.84478,11.48642Z" fill="#fff"/><path d="M81.08892,13.899V10.7833a1.25707,1.25707,0,0,0-.26806-.87891,1.09206,1.09206,0,0,0-.83936-.29,1.38433,1.38433,0,0,0-1.10742.40869,2.06344,2.06344,0,0,0-.35156,1.34913V13.899H77.793V9.08261h.59327l.11865.65918h.03516a1.4895,1.4895,0,0,1,.62841-.55151,2.04266,2.04266,0,0,1,.90088-.19556A1.82972,1.82972,0,0,1,81.379,9.4144a1.78614,1.78614,0,0,1,.43946,1.34253V13.899Z" fill="#fff"/><path d="M51.87481,23.02323h3.94043v5.376a11.39637,11.39637,0,0,1-1.85669.44678,13.14376,13.14376,0,0,1-1.92261.13184,4.82932,4.82932,0,0,1-3.75-1.43921,5.79538,5.79538,0,0,1-1.31835-4.06128A5.41507,5.41507,0,0,1,48.4544,19.4307a5.58886,5.58886,0,0,1,4.09424-1.46118,7.97439,7.97439,0,0,1,3.17871.64453l-.61523,1.45752a6.18667,6.18667,0,0,0-2.60743-.60059,3.511,3.511,0,0,0-2.71,1.07666,4.16717,4.16717,0,0,0-.99609,2.94434,4.39545,4.39545,0,0,0,.89722,2.98462,3.25267,3.25267,0,0,0,2.58178,1.02172,8.481,8.481,0,0,0,1.81641-.2124V24.52469H51.87481Z" fill="#fff"/><path d="M65.388,24.76639a4.42111,4.42111,0,0,1-1.01807,3.09815,3.64754,3.64754,0,0,1-2.83447,1.11328,3.883,3.883,0,0,1-2.00684-.5127A3.384,3.384,0,0,1,58.18829,26.993a5.01356,5.01356,0,0,1-.46875-2.22656,4.39171,4.39171,0,0,1,1.01074-3.07617,3.665,3.665,0,0,1,2.84912-1.106,3.56863,3.56863,0,0,1,2.7832,1.13159A4.3712,4.3712,0,0,1,65.388,24.76639Zm-5.896,0q0,2.80527,2.07275,2.80518,2.05078,0,2.05078-2.80518,0-2.77578-2.06543-2.77588a1.76125,1.76125,0,0,0-1.571.71778A3.65282,3.65282,0,0,0,59.492,24.76639Z" fill="#fff"/><path d="M74.55059,24.76639a4.4211,4.4211,0,0,1-1.01806,3.09815,3.64755,3.64755,0,0,1-2.83448,1.11328,3.883,3.883,0,0,1-2.00683-.5127A3.384,3.384,0,0,1,67.35089,26.993a5.01356,5.01356,0,0,1-.46875-2.22656,4.39171,4.39171,0,0,1,1.01074-3.07617,3.665,3.665,0,0,1,2.84912-1.106,3.56865,3.56865,0,0,1,2.7832,1.13159A4.3712,4.3712,0,0,1,74.55059,24.76639Zm-5.896,0q0,2.80527,2.07275,2.80518,2.05078,0,2.05078-2.80518,0-2.77578-2.06543-2.77588a1.76124,1.76124,0,0,0-1.571.71778A3.65282,3.65282,0,0,0,68.6546,24.76639Z" fill="#fff"/><path d="M83.369,20.73075v.94482l-1.38427.25635a2.23524,2.23524,0,0,1,.31494.62988,2.48532,2.48532,0,0,1,.12451.791,2.42342,2.42342,0,0,1-.86426,1.97021,3.61635,3.61635,0,0,1-2.38037.71778,3.85381,3.85381,0,0,1-.70313-.0586.9697.9697,0,0,0-.55664.80567.44755.44755,0,0,0,.26.41748,2.2477,2.2477,0,0,0,.95581.13916h1.41358a3.143,3.143,0,0,1,2.03613.57129,2.00977,2.00977,0,0,1,.6958,1.64794,2.39641,2.39641,0,0,1-1.13525,2.124,5.97734,5.97734,0,0,1-3.28125.74707,4.52884,4.52884,0,0,1-2.52686-.58594,1.894,1.894,0,0,1-.87158-1.66992,1.777,1.777,0,0,1,.47241-1.2561,2.5318,2.5318,0,0,1,1.322-.70679,1.2928,1.2928,0,0,1-.56762-.47241,1.19227,1.19227,0,0,1-.22339-.68482,1.17911,1.17911,0,0,1,.25635-.769,2.95877,2.95877,0,0,1,.76171-.62256,2.25541,2.25541,0,0,1-1.02172-.88257,2.59576,2.59576,0,0,1-.39185-1.43188,2.567,2.567,0,0,1,.8313-2.04346,3.49485,3.49485,0,0,1,2.36938-.7251,5.77853,5.77853,0,0,1,.72144.04761,4.565,4.565,0,0,1,.56763.09888ZM77.00421,30.0911a.94674.94674,0,0,0,.50171.85693,2.758,2.758,0,0,0,1.40991.30029,4.26027,4.26027,0,0,0,2.09472-.40283,1.2077,1.2077,0,0,0,.68848-1.06933.80214.80214,0,0,0-.3772-.75074,3.02831,3.02831,0,0,0-1.40258-.22338H78.61553a1.83145,1.83145,0,0,0-1.17553.3479A1.1407,1.1407,0,0,0,77.00421,30.0911Zm.73974-6.73828a1.62992,1.62992,0,0,0,.39185,1.17187,1.48157,1.48157,0,0,0,1.12427.41016q1.49413,0,1.49414-1.59668a1.811,1.811,0,0,0-.36988-1.21948,1.40517,1.40517,0,0,0-1.12426-.42847,1.44911,1.44911,0,0,0-1.1316.4248A1.78592,1.78592,0,0,0,77.744,23.35282Z" fill="#fff"/><path d="M86.59161,28.83133H84.87042V17.43485h1.72119Z" fill="#fff"/><path d="M92.59014,28.97782a3.91831,3.91831,0,0,1-2.95532-1.1023,4.18436,4.18436,0,0,1-1.06567-3.03589,4.59114,4.59114,0,0,1,.98877-3.12011,3.41544,3.41544,0,0,1,2.71728-1.13526,3.33826,3.33826,0,0,1,2.53418.97412,3.72247,3.72247,0,0,1,.93018,2.68067v.93017H90.34161a2.66041,2.66041,0,0,0,.63721,1.81275,2.21919,2.21919,0,0,0,1.69189.63354,6.24136,6.24136,0,0,0,1.33667-.1355,6.9974,6.9974,0,0,0,1.32935-.45044V28.4285a5.27946,5.27946,0,0,1-1.27442.42481A7.82033,7.82033,0,0,1,92.59014,28.97782ZM92.2752,21.888a1.72947,1.72947,0,0,0-1.31469.52,2.47855,2.47855,0,0,0-.5896,1.51612h3.67675a2.24234,2.24234,0,0,0-.48339-1.51978A1.65333,1.65333,0,0,0,92.2752,21.888Z" fill="#fff"/><path d="M108.86456,21.36063a3.12216,3.12216,0,0,1-1.09863,2.5708,4.83986,4.83986,0,0,1-3.12745.89356H103.5252v4.00634h-1.75049v-10.708h3.0835a4.66534,4.66534,0,0,1,3.00659.82032A2.94487,2.94487,0,0,1,108.86456,21.36063Zm-5.33936,1.99219h.93018a3.33251,3.33251,0,0,0,1.97754-.46875,1.70582,1.70582,0,0,0,.62988-1.46485,1.66229,1.66229,0,0,0-.564-1.377,2.78587,2.78587,0,0,0-1.75782-.4541H103.5252Z" fill="#fff"/><path d="M112.54132,28.83133h-1.7212V17.43485h1.7212Z" fill="#fff"/><path d="M120.07061,28.83133l-.34424-1.12793h-.05859a3.31709,3.31709,0,0,1-1.1792,1.00708,3.73029,3.73029,0,0,1-1.52344.26734,2.578,2.578,0,0,1-1.864-.64453,2.4116,2.4116,0,0,1-.67017-1.82373,2.14126,2.14126,0,0,1,.93018-1.88965,5.36391,5.36391,0,0,1,2.83447-.6958l1.39893-.04395V23.448a1.63794,1.63794,0,0,0-.36255-1.16089,1.47862,1.47862,0,0,0-1.12427-.38452,3.88922,3.88922,0,0,0-1.19385.18311,9.02842,9.02842,0,0,0-1.09863.43213l-.55664-1.23047a5.99581,5.99581,0,0,1,1.44287-.52368,6.64361,6.64361,0,0,1,1.47949-.17945,3.50434,3.50434,0,0,1,2.33277.67383,2.63834,2.63834,0,0,1,.78735,2.1167v5.45654Zm-2.56347-1.17187a2.13173,2.13173,0,0,0,1.50512-.52368,1.8983,1.8983,0,0,0,.56763-1.46851v-.70312l-1.04.04394a3.55882,3.55882,0,0,0-1.7688.40649,1.235,1.235,0,0,0-.553,1.10962,1.0827,1.0827,0,0,0,.32227.83863A1.38459,1.38459,0,0,0,117.50714,27.65946Z" fill="#fff"/><path d="M122.473,20.73075h1.875l1.64795,4.59228a8.71564,8.71564,0,0,1,.498,1.84571h.0586a7.70206,7.70206,0,0,1,.2417-.97779q.17577-.57486,1.86035-5.4602H130.515L127.05059,29.908q-.94482,2.52685-3.14941,2.52686a4.96024,4.96024,0,0,1-1.11328-.12451V30.948a4.03318,4.03318,0,0,0,.88623.08789,1.81513,1.81513,0,0,0,1.75049-1.44287l.30029-.76172Z" fill="#fff"/><path d="M26.97622,18.936,15.81872,7.73842V30.11491Zm.802.66227L16.5728,30.76637c.75568.09835,12.5788-6.27466,14.44393-7.863Zm-.18076-1.26417L31.03692,14.875c-4.43859-2.51658-8.94023-5.0779-13.45765-7.61109a4.6901,4.6901,0,0,0-1.29105-.251Zm.26437.64134c1.23206,1.18246,2.31957,2.25707,3.45253,3.28141a.92187.92187,0,0,0,.83826.10783c1.37924-.73625,2.74591-1.50071,4.07859-2.3181,1.09578-.67208,1.06629-1.55615-.05546-2.22972-1.31206-.78785-2.641-1.55049-3.99443-2.26371a1.00319,1.00319,0,0,0-.90853.135C30.16746,16.69294,29.11459,17.75534,27.8618,18.97546Z" fill="#fff"/></g></g></svg>