<svg xmlns="http://www.w3.org/2000/svg" width="152.03" height="38.007" viewBox="0 0 152.03 38.007"><defs><style>.a,.b,.c{fill:#fff;}.a{font-size:9px;font-family:OpenSans-Regular, Open Sans;}.b{font-size:15px;font-family:OpenSans-SemiBold, Open Sans;font-weight:600;}</style></defs><g transform="translate(-140.041 -409.767)"><rect width="152.03" height="38.007" rx="18.189" transform="translate(140.041 409.767)"/><text class="a" transform="translate(186.717 423.666)"><tspan x="0" y="0">Get it on</tspan></text><text class="b" transform="translate(186.123 438.599)"><tspan x="0" y="0">Google Play</tspan></text><path class="c" d="M167.017,428.7l-11.157-11.2v22.376Zm.8.663-11.205,11.168c.756.1,12.579-6.275,14.444-7.863Zm-.18-1.265,3.439-3.459c-4.438-2.516-8.94-5.078-13.458-7.611a4.7,4.7,0,0,0-1.291-.251Zm.264.642c1.232,1.182,2.32,2.257,3.453,3.281a.92.92,0,0,0,.838.108c1.379-.736,2.746-1.5,4.078-2.318,1.1-.672,1.067-1.556-.055-2.23-1.312-.788-2.641-1.55-3.995-2.263a1,1,0,0,0-.908.135C170.209,426.46,169.156,427.523,167.9,428.743Z"/></g></svg>