<svg xmlns="http://www.w3.org/2000/svg" width="63.12" height="65.325" viewBox="0 0 63.12 65.325"><defs><style>.a{fill:#fff;}</style></defs><g transform="translate(-965.817 -1410.247)"><path class="a" d="M976.56,1452.13c2.458,0,4.868-.019,7.277.005a22.865,22.865,0,0,1,6.3.619,20.415,20.415,0,0,1,7.69,4.172,2.256,2.256,0,0,0,1.606.588c2.477-.027,4.955-.026,7.432-.013a2.363,2.363,0,0,1,.629,4.658,3.644,3.644,0,0,1-.881.073c-3.493.005-6.987,0-10.48.013a1.409,1.409,0,0,0-.939.242,1.682,1.682,0,0,0-.412,1.1.889.889,0,0,0,.915.811c.507.028,1.016.015,1.524.015,3.134,0,6.267-.018,9.4.008a4.767,4.767,0,0,0,3.78-1.613,1.8,1.8,0,0,1,.561-.395q7.259-3.494,14.523-6.97a2.308,2.308,0,0,1,3.446,1.816,2.12,2.12,0,0,1-.928,2.04,171.7,171.7,0,0,1-22.394,13.439,30.222,30.222,0,0,1-7.75,2.735,8.907,8.907,0,0,1-4.07-.361,60.549,60.549,0,0,1-10.84-4.6c-2.012-1.034-3.988-2.138-5.964-3.24a.924.924,0,0,1-.433-.651c-.024-4.763-.018-9.527-.016-14.291A1.37,1.37,0,0,1,976.56,1452.13Z"/><path class="a" d="M996.286,1446.943a18.348,18.348,0,1,1,18.347-18.35A18.4,18.4,0,0,1,996.286,1446.943Zm-9.23-7.405a14.476,14.476,0,0,0,7.962,3.335c.176-.974.548-1.434,1.2-1.429a1.09,1.09,0,0,1,.753.249,7.281,7.281,0,0,1,.69,1.2,14.455,14.455,0,0,0,8.006-3.228c-.777-.8-.858-1.49-.28-2.018s1.247-.411,1.973.382a14.106,14.106,0,0,0,3.53-8.311c-1.131.115-1.765-.276-1.737-1.091a1.217,1.217,0,0,1,.371-.882,5.178,5.178,0,0,1,1.327-.426,13.316,13.316,0,0,0-3.534-8.136c-.688.77-1.392.886-1.953.32s-.464-1.247.321-1.993a14.415,14.415,0,0,0-8.163-3.222c-.15.979-.493,1.392-1.148,1.443-.716.056-1.1-.327-1.4-1.433a14.426,14.426,0,0,0-7.924,3.337c.577.751.647,1.312.188,1.789a1.092,1.092,0,0,1-.7.377,7.118,7.118,0,0,1-1.33-.331,14.026,14.026,0,0,0-3.239,7.915c.928.075,1.391.416,1.413,1.066a1.179,1.179,0,0,1-.215.821,6.3,6.3,0,0,1-1.2.7,14.13,14.13,0,0,0,3.329,7.835c.791-.594,1.384-.632,1.877-.136S987.656,1438.757,987.056,1439.538Z"/><path class="a" d="M974.313,1470.268h-8.5v-20.34h8.5Zm-2.348-4.522a1.865,1.865,0,0,0-1.856-1.913,1.9,1.9,0,0,0-1.949,1.838,1.937,1.937,0,0,0,1.905,1.96A1.9,1.9,0,0,0,971.965,1465.746Z"/><path class="a" d="M995.154,1431.421q-1.177,1.189-2.356,2.379c-.821.825-1.641,1.651-2.47,2.468a1.1,1.1,0,1,1-1.524-1.551c1.657-1.666,3.33-3.315,4.969-5a1.479,1.479,0,0,0,.376-.914,2.56,2.56,0,0,1,.812-1.859,1.165,1.165,0,0,0,.326-.741c.025-2.392.013-4.783.016-7.174,0-.855.406-1.357,1.076-1.358s1.1.513,1.1,1.35q.006,3.111,0,6.222v.732c.254-.219.415-.373.591-.508a1.082,1.082,0,0,1,1.4.042,1.107,1.107,0,0,1,.146,1.444,2.676,2.676,0,0,1-.343.372,1.737,1.737,0,0,0-.715,1.491c.028.5-.463,1.029-.716,1.548a2.2,2.2,0,0,0-.344.8c-.029,2.031-.009,4.063-.02,6.094a1.1,1.1,0,0,1-.93,1.184,1.008,1.008,0,0,1-1.135-.621,1.925,1.925,0,0,1-.1-.742c-.008-1.65,0-3.3,0-4.952v-.623Z"/></g></svg>