<svg xmlns="http://www.w3.org/2000/svg" width="322.177" height="111.086" viewBox="0 0 322.177 111.086"><defs><style>.a{fill:#d64226;}</style></defs><g transform="translate(-141.823 -146.633)"><path class="a" d="M187.907,205.151q-1.185-3.461-2.455-6.84T183,191.387H158.281q-1.187,3.548-2.414,6.967t-2.412,6.8H142.39q3.288-9.374,6.244-17.31t5.779-15.031q2.825-7.094,5.61-13.511t5.738-12.666h10.156q2.956,6.249,5.743,12.666t5.616,13.511q2.83,7.092,5.827,15.031t6.292,17.31Zm-17.268-47.2q-1.944,4.476-4.434,10.893t-5.193,13.933h19.254q-2.7-7.515-5.237-14.018T170.639,157.948Z"/><path class="a" d="M219.529,146.633q1.857,3.21,4.139,7.853t4.645,9.753q2.359,5.109,4.684,10.386t4.267,9.754q1.938-4.476,4.22-9.754t4.644-10.386q2.364-5.107,4.644-9.753t4.139-7.853H264.5q.774,6.417,1.463,13.637t1.246,14.778q.555,7.557,1.03,15.2t.819,14.9h-10.47q-.345-10.215-.819-21.026t-1.419-20.942q-.928,1.944-2.2,4.645t-2.7,5.868q-1.436,3.167-2.912,6.545t-2.87,6.544q-1.4,3.166-2.577,5.911t-2.027,4.686h-7.937q-.845-1.941-2.028-4.729t-2.573-5.952q-1.4-3.168-2.871-6.545t-2.915-6.5q-1.436-3.123-2.7-5.869t-2.195-4.6q-.948,10.133-1.421,20.942t-.817,21.026h-10.47q.344-7.26.816-15.031t1.031-15.41q.56-7.643,1.248-14.82t1.461-13.257Z"/><path class="a" d="M281.383,146.633h10.64v58.518h-10.64Z"/><path class="a" d="M325.714,172.557q3.8-6.333,7.431-12.836t6.586-13.088h11.823q-4.731,8.951-9.838,17.775T330.78,182.183v22.968H320.141v-22.8q-5.827-9.036-10.977-17.9t-9.881-17.817h12.5q2.955,6.587,6.5,13.088T325.714,172.557Z"/><path class="a" d="M391.749,205.151q-1.186-3.461-2.456-6.84t-2.453-6.924H362.121q-1.187,3.548-2.412,6.967t-2.413,6.8H346.231q3.291-9.374,6.243-17.31t5.78-15.031q2.826-7.094,5.61-13.511t5.738-12.666h10.157q2.955,6.249,5.742,12.666t5.615,13.511q2.83,7.092,5.829,15.031t6.291,17.31Zm-17.269-47.2q-1.943,4.476-4.434,10.893t-5.193,13.933h19.254q-2.7-7.515-5.236-14.018T374.48,157.948Z"/><path class="a" d="M451.954,205.151q-1.185-3.461-2.456-6.84t-2.453-6.924H422.327q-1.186,3.548-2.413,6.967t-2.413,6.8H406.436q3.291-9.374,6.244-17.31t5.779-15.031q2.827-7.094,5.61-13.511t5.738-12.666h10.158q2.953,6.249,5.742,12.666t5.615,13.511q2.831,7.092,5.828,15.031t6.291,17.31Zm-17.269-47.2q-1.942,4.476-4.433,10.893t-5.194,13.933h19.254q-2.7-7.515-5.235-14.018T434.685,157.948Z"/><path d="M164.416,249q-1.3-3.339-2.761-7.632t-2.668-8.929q-1.206,4.64-2.644,8.929T153.606,249h-3.757q-2.135-4.779-4.175-10.9t-3.851-13.222h4.639q.463,2.18,1.114,4.732t1.368,5.1q.72,2.553,1.508,4.918t1.485,4.129q.788-2.181,1.553-4.616t1.462-4.917q.7-2.481,1.321-4.871t1.091-4.477h3.572q.417,2.087,1.021,4.477t1.3,4.871q.7,2.482,1.462,4.917t1.553,4.616q.7-1.764,1.462-4.129t1.508-4.918q.741-2.548,1.391-5.1t1.114-4.732H176.2q-1.811,7.1-3.851,13.222T168.173,249Z"/><path d="M180.745,249V213.741l4.314-.742v12.339a14.552,14.552,0,0,1,2.574-.719,14.8,14.8,0,0,1,2.715-.255,12.242,12.242,0,0,1,4.777.811,7.475,7.475,0,0,1,3.04,2.274,8.808,8.808,0,0,1,1.6,3.5,20.339,20.339,0,0,1,.464,4.5V249h-4.314V236.378a20.583,20.583,0,0,0-.3-3.8,6.427,6.427,0,0,0-1-2.552,3.944,3.944,0,0,0-1.855-1.414,8.129,8.129,0,0,0-2.877-.441,11.363,11.363,0,0,0-1.437.093c-.495.062-.968.132-1.415.208s-.851.163-1.206.256a6.955,6.955,0,0,0-.766.231V249Z"/><path d="M214.563,224.271a12.54,12.54,0,0,1,4.384.672,7.132,7.132,0,0,1,2.876,1.9,7.223,7.223,0,0,1,1.554,2.923,14.127,14.127,0,0,1,.464,3.735v15.076c-.372.063-.89.147-1.554.256s-1.415.208-2.25.3-1.74.178-2.714.255-1.941.116-2.9.116a15.9,15.9,0,0,1-3.758-.417,8.419,8.419,0,0,1-2.969-1.322,6.056,6.056,0,0,1-1.949-2.39,8.368,8.368,0,0,1-.7-3.571,6.875,6.875,0,0,1,.811-3.433,6.5,6.5,0,0,1,2.2-2.321,10.234,10.234,0,0,1,3.247-1.3,17.728,17.728,0,0,1,3.9-.417q.649,0,1.346.069c.464.046.9.109,1.322.186s.781.148,1.09.208.526.109.649.139v-1.205a9.754,9.754,0,0,0-.231-2.112,4.852,4.852,0,0,0-.836-1.855,4.245,4.245,0,0,0-1.646-1.3,6.476,6.476,0,0,0-2.714-.486,20.312,20.312,0,0,0-3.735.3,13.186,13.186,0,0,0-2.389.626l-.51-3.572a13.305,13.305,0,0,1,2.783-.719A24.045,24.045,0,0,1,214.563,224.271Zm.371,21.617q1.53,0,2.714-.07a11.675,11.675,0,0,0,1.971-.255v-7.189a5.5,5.5,0,0,0-1.508-.394,17.494,17.494,0,0,0-4.592-.024,6.355,6.355,0,0,0-1.994.58,4.261,4.261,0,0,0-1.508,1.206,3.161,3.161,0,0,0-.6,2.019,3.462,3.462,0,0,0,1.484,3.223A7.726,7.726,0,0,0,214.934,245.888Z"/><path d="M235.021,224.874h9.139v3.619h-9.139v11.133a13.429,13.429,0,0,0,.278,2.993,4.5,4.5,0,0,0,.836,1.855,2.989,2.989,0,0,0,1.391.95,6.15,6.15,0,0,0,1.948.279,9.16,9.16,0,0,0,3.132-.441q1.184-.439,1.647-.626l.834,3.573a16.242,16.242,0,0,1-2.273.811,12.911,12.911,0,0,1-3.711.487,11.257,11.257,0,0,1-4.059-.626A5.91,5.91,0,0,1,232.469,247a7.545,7.545,0,0,1-1.368-3.086,20.324,20.324,0,0,1-.4-4.245V218.148l4.315-.744Z"/><path d="M253.576,214.2v1c0,.325-.016.642-.046.951a17.209,17.209,0,0,1-1.067,4.755,27.181,27.181,0,0,1-2.134,4.431l-3.339-1.067a21.43,21.43,0,0,0,1.46-4.152,16.9,16.9,0,0,0,.487-3.874q0-.463-.023-1t-.069-1.044Z"/><path d="M261.416,245.888a8.491,8.491,0,0,0,3.92-.7,2.351,2.351,0,0,0,1.276-2.225,2.956,2.956,0,0,0-1.253-2.506,19.831,19.831,0,0,0-4.128-2.087q-1.393-.556-2.668-1.136a9.34,9.34,0,0,1-2.2-1.37,5.968,5.968,0,0,1-1.485-1.9,6.085,6.085,0,0,1-.557-2.738,6.149,6.149,0,0,1,2.366-5.08,10.1,10.1,0,0,1,6.449-1.878,18.132,18.132,0,0,1,2.04.116q1.021.116,1.9.278t1.555.348c.448.125.795.232,1.043.325l-.788,3.711a10.817,10.817,0,0,0-2.18-.765,14.116,14.116,0,0,0-3.572-.394,6.589,6.589,0,0,0-3.155.719,2.382,2.382,0,0,0-1.345,2.249,3.08,3.08,0,0,0,.3,1.393,3.207,3.207,0,0,0,.928,1.089,7.574,7.574,0,0,0,1.554.9q.927.417,2.227.881,1.715.649,3.062,1.275a9.577,9.577,0,0,1,2.3,1.463,5.622,5.622,0,0,1,1.462,2.017,7.338,7.338,0,0,1,.51,2.9,5.758,5.758,0,0,1-2.482,5.057q-2.482,1.715-7.075,1.715a18.516,18.516,0,0,1-5.01-.533q-1.811-.533-2.459-.811l.789-3.712q.741.278,2.366.835A13.652,13.652,0,0,0,261.416,245.888Z"/><path d="M296.765,249.553a13.119,13.119,0,0,1-5.126-.927,10.3,10.3,0,0,1-3.712-2.6,10.779,10.779,0,0,1-2.25-3.965,16.479,16.479,0,0,1-.742-5.079,15.376,15.376,0,0,1,.812-5.1,12.045,12.045,0,0,1,2.3-4.011,10.309,10.309,0,0,1,3.642-2.645,11.778,11.778,0,0,1,4.8-.951,19.249,19.249,0,0,1,3.247.278,15.025,15.025,0,0,1,3.108.881l-.974,3.666a10.365,10.365,0,0,0-2.25-.742,12.691,12.691,0,0,0-2.714-.279,6.859,6.859,0,0,0-5.543,2.273q-1.926,2.274-1.926,6.635a13.593,13.593,0,0,0,.441,3.57,7.346,7.346,0,0,0,1.392,2.785,6.2,6.2,0,0,0,2.436,1.785,9.311,9.311,0,0,0,3.618.626,13.619,13.619,0,0,0,3.108-.325,11.224,11.224,0,0,0,2.18-.695l.6,3.619a4.528,4.528,0,0,1-1.068.44,15.152,15.152,0,0,1-1.577.371q-.882.164-1.878.278A16.78,16.78,0,0,1,296.765,249.553Z"/><path d="M328.542,236.936a15.279,15.279,0,0,1-.834,5.2,11.882,11.882,0,0,1-2.343,3.988,10.276,10.276,0,0,1-3.6,2.575,11.873,11.873,0,0,1-9.093,0,10.267,10.267,0,0,1-3.6-2.575,11.882,11.882,0,0,1-2.343-3.988,16.515,16.515,0,0,1,0-10.37,11.844,11.844,0,0,1,2.343-4.011,10.282,10.282,0,0,1,3.6-2.576,11.885,11.885,0,0,1,9.093,0,10.291,10.291,0,0,1,3.6,2.576,11.844,11.844,0,0,1,2.343,4.011A15.339,15.339,0,0,1,328.542,236.936Zm-4.5,0a10.382,10.382,0,0,0-1.831-6.472,6.4,6.4,0,0,0-9.974,0,12.34,12.34,0,0,0,0,12.943,6.4,6.4,0,0,0,9.974,0A10.38,10.38,0,0,0,324.042,236.936Z"/><path d="M355.217,236.936a15.254,15.254,0,0,1-.835,5.2,11.864,11.864,0,0,1-2.342,3.988,10.285,10.285,0,0,1-3.6,2.575,11.873,11.873,0,0,1-9.093,0,10.27,10.27,0,0,1-3.6-2.575,11.9,11.9,0,0,1-2.343-3.988,16.535,16.535,0,0,1,0-10.37,11.861,11.861,0,0,1,2.343-4.011,10.286,10.286,0,0,1,3.6-2.576,11.885,11.885,0,0,1,9.093,0,10.3,10.3,0,0,1,3.6,2.576,11.826,11.826,0,0,1,2.342,4.011A15.314,15.314,0,0,1,355.217,236.936Zm-4.5,0a10.382,10.382,0,0,0-1.832-6.472,6.4,6.4,0,0,0-9.974,0,12.346,12.346,0,0,0,0,12.943,6.4,6.4,0,0,0,9.974,0A10.381,10.381,0,0,0,350.717,236.936Z"/><path d="M369.32,235.729a28.83,28.83,0,0,1,2.945,2.645q1.555,1.575,3.063,3.41t2.853,3.71a41.646,41.646,0,0,1,2.273,3.5H375.4a38.338,38.338,0,0,0-2.25-3.318q-1.275-1.69-2.667-3.246a38.4,38.4,0,0,0-2.83-2.854,25.527,25.527,0,0,0-2.737-2.179V249H360.6V213.741l4.314-.742v21.988l2.458-2.458q1.346-1.346,2.644-2.738t2.459-2.668q1.16-1.273,1.995-2.249h5.057q-1.068,1.161-2.32,2.552t-2.6,2.806q-1.346,1.415-2.714,2.83T369.32,235.729Z"/><path d="M387.179,220.513a2.768,2.768,0,0,1-1.971-.765,3.03,3.03,0,0,1,0-4.129,2.923,2.923,0,0,1,3.943,0,3.03,3.03,0,0,1,0,4.129A2.772,2.772,0,0,1,387.179,220.513ZM389.359,249h-4.313V224.874h4.313Z"/><path d="M396.782,225.569q1.483-.369,3.942-.788a34.181,34.181,0,0,1,5.661-.417,12.245,12.245,0,0,1,4.777.811,7.479,7.479,0,0,1,3.039,2.274,8.794,8.794,0,0,1,1.6,3.5,20.278,20.278,0,0,1,.465,4.5V249h-4.315V236.378a20.677,20.677,0,0,0-.3-3.8,6.442,6.442,0,0,0-1-2.552,3.954,3.954,0,0,0-1.855-1.414,8.133,8.133,0,0,0-2.877-.441q-.7,0-1.438.046c-.494.031-.967.07-1.415.116s-.851.1-1.206.163-.611.108-.766.139V249h-4.313Z"/><path d="M438.533,246.585a11.606,11.606,0,0,1-2.157.951,10.95,10.95,0,0,1-3.735.58,11.972,11.972,0,0,1-4.1-.7,8.918,8.918,0,0,1-3.364-2.158,10.413,10.413,0,0,1-2.273-3.642,14.51,14.51,0,0,1-.835-5.2,14.264,14.264,0,0,1,.789-4.847,10.76,10.76,0,0,1,2.3-3.8,10.52,10.52,0,0,1,3.688-2.506,12.724,12.724,0,0,1,4.918-.9,27.669,27.669,0,0,1,5.265.44q2.25.442,3.781.812v21.526q0,5.565-2.877,8.071t-8.721,2.506a23.84,23.84,0,0,1-4.291-.371,24.848,24.848,0,0,1-3.5-.881l.788-3.758a20.455,20.455,0,0,0,3.178.9,19.1,19.1,0,0,0,3.92.394q3.851,0,5.543-1.53t1.694-4.871Zm-.046-17.907a14.584,14.584,0,0,0-1.74-.348,21.048,21.048,0,0,0-2.946-.162,6.561,6.561,0,0,0-5.358,2.272,9.167,9.167,0,0,0-1.879,6.031,10.613,10.613,0,0,0,.533,3.572,7.053,7.053,0,0,0,1.439,2.46,5.607,5.607,0,0,0,2.088,1.437,6.616,6.616,0,0,0,2.435.464,9.772,9.772,0,0,0,3.154-.487,7.772,7.772,0,0,0,2.274-1.136Z"/><path d="M454.583,219.725A12.471,12.471,0,0,0,448.6,221.3l-1.207-3.339a16.2,16.2,0,0,1,3.549-1.346,16.757,16.757,0,0,1,4.2-.51,11.216,11.216,0,0,1,4.337.718,7.711,7.711,0,0,1,2.714,1.834,6.18,6.18,0,0,1,1.415,2.481,9.5,9.5,0,0,1,.394,2.622,6.3,6.3,0,0,1-.6,2.8,11.626,11.626,0,0,1-1.485,2.3,20.136,20.136,0,0,1-1.947,2.04,21.43,21.43,0,0,0-1.949,2.019,11.082,11.082,0,0,0-1.485,2.272,6.194,6.194,0,0,0-.6,2.761v.511a2.61,2.61,0,0,0,.047.51h-3.619a9.9,9.9,0,0,1-.186-1.948,6.56,6.56,0,0,1,.535-2.691,10.089,10.089,0,0,1,1.368-2.25,20.993,20.993,0,0,1,1.763-1.949q.927-.9,1.763-1.832a9.517,9.517,0,0,0,1.368-1.949,4.738,4.738,0,0,0,.533-2.226,4.262,4.262,0,0,0-1.252-3.179A5.03,5.03,0,0,0,454.583,219.725Zm2.923,26.766a3.154,3.154,0,0,1-.836,2.181,3.248,3.248,0,0,1-4.546,0,3.265,3.265,0,0,1,0-4.361,3.25,3.25,0,0,1,4.546,0A3.154,3.154,0,0,1,457.506,246.491Z"/></g></svg>