<svg xmlns="http://www.w3.org/2000/svg" xmlns:xlink="http://www.w3.org/1999/xlink" width="144.192" height="201.914" viewBox="0 0 144.192 201.914"><defs><style>.a{fill:#f7a169;}.b{fill:#d44327;}.c{fill:#e36441;}.d{fill:#bf8944;}.e{fill:#915a1c;}.f{fill:#2b1709;}.g{clip-path:url(#a);}.h{fill:#e6925b;opacity:0.95;}.i{clip-path:url(#b);}.j{opacity:0.8;}.k{fill:#e37017;}.l{fill:#ffb900;}.m{fill:#ab2412;}.n{clip-path:url(#c);}.o{fill:#d1422a;}.p{fill:#fff;}.q,.r{fill:none;stroke:#b56934;stroke-miterlimit:10;}.q{stroke-width:0.25px;}.r{stroke-width:0.2px;}</style><clipPath id="a"><path class="a" d="M915.865,1194.976c-.265,3.98.8,11.941-1.327,14.329s-9.022,2.123-11.41,2.919,2.388,11.941,4.776,16.452,5.042,14.595,8.757,12.472,22.821-23.086,23.351-24.944-7.43-3.184-8.491-7.695,0-24.147,0-24.147Z"/></clipPath><clipPath id="b"><path class="b" d="M870.49,1261.182c1.857-5.44,6.766-20.167,14.594-31.312s14.462-18.84,23.086-18.575a9.06,9.06,0,0,0,7.43,7.032c-1.592,6.236-2.919,17.514-2.919,17.514s6.368-12.737,7.3-17.116c4.246-.132,12.6-.928,17.115-5.174,0,0,20.5.862,24.877,28.326a326.891,326.891,0,0,1,3.981,50.948l-3.583,3.384s2.787,16.319-.8,26.668-41.594,24.479-41.594,24.479-54.53,6.766-58.311,4.577-7.961-3.98-6.767-10.548,8.956-14.329,22.887-27.663,21.892-20.9,21.892-31.245-.878-17.468-2.389-19.9-2.587-4.179-2.587-4.179-13.931,24.678-26.469,29.056C870.025,1275.113,870.49,1261.182,870.49,1261.182Z"/></clipPath><clipPath id="c"><path class="c" d="M910.014,1194.868l2.151-1.2a1.237,1.237,0,0,1,.564-.2c.481-.008.822.521,1.3.576.449.052.883-.332,1.32-.217a1.225,1.225,0,0,1,.463.292l1.6,1.386a.229.229,0,0,1-.006.42l-1.524,1.255a2.473,2.473,0,0,1-2.738.564,1.629,1.629,0,0,1-.984-.5c-.288-.256-.577-.513-.843-.793a7.458,7.458,0,0,1-1.168-1.359Z"/></clipPath></defs><g transform="translate(-854.692 -1153.716)"><path class="d" d="M995.726,1241.714c-6.787-1.234-25.912-1.234-25.912-1.234l-22.21.309-9.871,48.738-11.1,27.145-21.593,12.648-8.638,2.467,28.38,8.329,19.742,9.871,21.593-9.254,13.881-16.966,11.1-62.311Z"/><path class="e" d="M997.962,1256.6c.926-4.627,2.237-14.267-2.236-14.884s-7.712,1.928-10.257,15.578-10.179,50.435-11.336,57.607-.463,18.508-9.948,22.9-13.65,5.321-21.516,3.239-42.8-3.008-42.8-3.008l-9.717,4.4s-5.553,2.313-6.247,5.089,9.255,3.7,21.285,4.627,35.165,3.7,45.808,3.471,19.665-3.008,26.837-11.568,10.179-29.844,13.187-44.188S997.962,1256.6,997.962,1256.6Z"/><path class="f" d="M930.725,1230.268c2.919,1.725,16.186,4.379,22.953.531s10.216-10.349,7.43-17.646c0,0-.8-1.99-8.093-10.482-4.246-3.847-2.123-12.206-2.389-15.921s-6.9-7.828-6.9-7.828l-6.5-4.113-7.563-1.194-11.012,8.757,1.99,20.565,7.032,18.575Z"/><path class="a" d="M915.865,1194.976c-.265,3.98.8,11.941-1.327,14.329s-9.022,2.123-11.41,2.919,2.388,11.941,4.776,16.452,5.042,14.595,8.757,12.472,22.821-23.086,23.351-24.944-7.43-3.184-8.491-7.695,0-24.147,0-24.147Z"/><g class="g"><path class="h" d="M915.2,1211.428c4.245-1.857,16.319-5.174,17.115-12.339.655-5.9.8-11.41.8-11.41l-9.022,4.776-9.818,6.634Z"/></g><path class="b" d="M870.49,1261.182c1.857-5.44,6.766-20.167,14.594-31.312s14.462-18.84,23.086-18.575a9.06,9.06,0,0,0,7.43,7.032c-1.592,6.236-2.919,17.514-2.919,17.514s6.368-12.737,7.3-17.116c4.246-.132,12.6-.928,17.115-5.174,0,0,20.5.862,24.877,28.326a326.891,326.891,0,0,1,3.981,50.948l-3.583,3.384s2.787,16.319-.8,26.668-41.594,24.479-41.594,24.479-54.53,6.766-58.311,4.577-7.961-3.98-6.767-10.548,8.956-14.329,22.887-27.663,21.892-20.9,21.892-31.245-.878-17.468-2.389-19.9-2.587-4.179-2.587-4.179-13.931,24.678-26.469,29.056C870.025,1275.113,870.49,1261.182,870.49,1261.182Z"/><g class="i"><g class="j"><path class="k" d="M850.656,1219.231v4.856c.406-.976.835-1.941,1.3-2.89,1.29-2.647,2.911-5.087,4.369-7.633,1.177-2.055,2.337-4.733,2.18-7.215h-1.927c-.786,1.286-1.839,2.379-2.641,3.655A28.265,28.265,0,0,0,850.656,1219.231Z"/><path class="k" d="M851.248,1206.349H850.6c.016.342.034.683.056,1.025C850.851,1207.029,851.049,1206.689,851.248,1206.349Z"/><path class="k" d="M850.656,1214.809a21.483,21.483,0,0,1,3.287-6.736c.433-.572.885-1.137,1.292-1.724h-2.722a20.609,20.609,0,0,0-1.857,3.6Z"/><path class="k" d="M872.05,1219.231v4.856c.407-.976.835-1.941,1.3-2.89,1.289-2.647,2.91-5.087,4.368-7.633,1.177-2.055,2.337-4.733,2.18-7.215H877.97c-.787,1.286-1.84,2.379-2.642,3.655A28.266,28.266,0,0,0,872.05,1219.231Z"/><path class="k" d="M872.05,1214.809a21.483,21.483,0,0,1,3.287-6.736c.433-.572.885-1.137,1.292-1.724h-2.721a20.548,20.548,0,0,0-1.858,3.6Z"/><path class="k" d="M872.642,1206.349H872c.016.342.034.683.056,1.025C872.245,1207.029,872.443,1206.689,872.642,1206.349Z"/><path class="k" d="M870.864,1206.349h-.643c.2.34.4.68.587,1.025C870.83,1207.032,870.848,1206.691,870.864,1206.349Z"/><path class="k" d="M871.437,1225.6h-.014l.007.018Z"/><path class="k" d="M870.813,1214.809v-4.855a20.618,20.618,0,0,0-1.858-3.6h-2.721c.406.587.858,1.152,1.292,1.724A21.525,21.525,0,0,1,870.813,1214.809Z"/><path class="k" d="M863.12,1208.628a17.733,17.733,0,0,0,2.433,5.631c.764,1.29,1.554,2.564,2.309,3.86a51.647,51.647,0,0,1,2.951,5.99v-4.877a43.777,43.777,0,0,0-1.408-5.263,19.05,19.05,0,0,0-2.242-4.529c-.723-1.051-1.6-2-2.269-3.091h-1.9A8.513,8.513,0,0,0,863.12,1208.628Z"/><path class="k" d="M884.514,1208.628a17.733,17.733,0,0,0,2.433,5.631c.764,1.29,1.554,2.564,2.31,3.86a51.807,51.807,0,0,1,2.95,5.99v-4.877a43.777,43.777,0,0,0-1.408-5.263,19.082,19.082,0,0,0-2.241-4.529c-.724-1.051-1.6-2-2.27-3.091h-1.9A8.51,8.51,0,0,0,884.514,1208.628Z"/><path class="k" d="M892.207,1214.809v-4.855a20.543,20.543,0,0,0-1.858-3.6h-2.721c.406.587.859,1.152,1.292,1.724A21.5,21.5,0,0,1,892.207,1214.809Z"/><path class="k" d="M892.258,1206.349h-.643c.2.34.4.68.587,1.025C892.224,1207.032,892.242,1206.691,892.258,1206.349Z"/><path class="k" d="M894.036,1206.349h-.643c.016.342.034.683.056,1.025C893.639,1207.029,893.837,1206.689,894.036,1206.349Z"/><path class="k" d="M893.444,1219.231v4.856c.407-.976.835-1.941,1.3-2.89,1.29-2.647,2.91-5.087,4.368-7.633,1.177-2.055,2.337-4.733,2.18-7.215h-1.926c-.787,1.286-1.84,2.379-2.642,3.655A28.268,28.268,0,0,0,893.444,1219.231Z"/><path class="k" d="M892.831,1225.6h-.014l.007.018Z"/><path class="k" d="M893.444,1214.809a21.5,21.5,0,0,1,3.287-6.736c.433-.572.886-1.137,1.292-1.724H895.3a20.614,20.614,0,0,0-1.858,3.6Z"/><path class="k" d="M914.838,1214.809a21.5,21.5,0,0,1,3.287-6.736c.433-.572.886-1.137,1.292-1.724H916.7a20.618,20.618,0,0,0-1.858,3.6Z"/><path class="k" d="M914.838,1219.231v4.856c.407-.976.835-1.941,1.3-2.89,1.29-2.647,2.91-5.087,4.368-7.633,1.177-2.055,2.337-4.733,2.18-7.215h-1.926c-.787,1.286-1.84,2.379-2.641,3.655A28.244,28.244,0,0,0,914.838,1219.231Z"/><path class="k" d="M915.43,1206.349h-.643c.016.342.034.683.056,1.025C915.033,1207.029,915.231,1206.689,915.43,1206.349Z"/><path class="k" d="M913.652,1206.349h-.643c.2.34.4.68.587,1.025C913.618,1207.032,913.636,1206.691,913.652,1206.349Z"/><path class="k" d="M913.6,1214.809v-4.855a20.548,20.548,0,0,0-1.858-3.6h-2.721c.406.587.859,1.152,1.292,1.724A21.5,21.5,0,0,1,913.6,1214.809Z"/><path class="k" d="M914.225,1225.6h-.014l.007.018Z"/><path class="k" d="M905.908,1208.628a17.732,17.732,0,0,0,2.433,5.631c.764,1.29,1.555,2.564,2.31,3.86a51.817,51.817,0,0,1,2.95,5.99v-4.877a43.788,43.788,0,0,0-1.408-5.263,19.084,19.084,0,0,0-2.241-4.529c-.724-1.051-1.6-2-2.27-3.091h-1.9A8.513,8.513,0,0,0,905.908,1208.628Z"/><path class="k" d="M934.995,1214.809v-4.855a20.613,20.613,0,0,0-1.857-3.6h-2.722c.407.587.859,1.152,1.292,1.724A21.483,21.483,0,0,1,934.995,1214.809Z"/><path class="k" d="M935.046,1206.349H934.4c.2.34.4.68.587,1.025C935.012,1207.032,935.03,1206.691,935.046,1206.349Z"/><path class="k" d="M935.619,1225.6H935.6l.007.018Z"/><path class="k" d="M927.3,1208.628a17.756,17.756,0,0,0,2.433,5.631c.764,1.29,1.555,2.564,2.31,3.86a51.8,51.8,0,0,1,2.95,5.99v-4.877a43.788,43.788,0,0,0-1.408-5.263,19.042,19.042,0,0,0-2.241-4.529c-.724-1.051-1.6-2-2.27-3.091h-1.9A8.513,8.513,0,0,0,927.3,1208.628Z"/><path class="k" d="M936.824,1206.349h-.643c.016.342.034.683.056,1.025C936.427,1207.029,936.625,1206.689,936.824,1206.349Z"/><path class="k" d="M936.232,1219.231v4.856c.407-.976.836-1.941,1.3-2.89,1.29-2.647,2.91-5.087,4.368-7.633,1.177-2.055,2.337-4.733,2.18-7.215h-1.926c-.787,1.286-1.84,2.379-2.641,3.655A28.269,28.269,0,0,0,936.232,1219.231Z"/><path class="k" d="M936.232,1214.809a21.525,21.525,0,0,1,3.287-6.736c.434-.572.886-1.137,1.292-1.724H938.09a20.614,20.614,0,0,0-1.858,3.6Z"/><path class="k" d="M957.626,1219.231v4.856c.407-.976.836-1.941,1.3-2.89,1.29-2.647,2.91-5.087,4.368-7.633,1.177-2.055,2.337-4.733,2.18-7.215h-1.926c-.787,1.286-1.84,2.379-2.641,3.655A28.268,28.268,0,0,0,957.626,1219.231Z"/><path class="k" d="M948.7,1208.628a17.755,17.755,0,0,0,2.433,5.631c.764,1.29,1.555,2.564,2.31,3.86a51.807,51.807,0,0,1,2.95,5.99v-4.877a43.777,43.777,0,0,0-1.408-5.263,19.045,19.045,0,0,0-2.241-4.529c-.723-1.051-1.6-2-2.27-3.091h-1.9A8.513,8.513,0,0,0,948.7,1208.628Z"/><path class="k" d="M958.218,1206.349h-.643c.016.342.034.683.056,1.025C957.821,1207.029,958.019,1206.689,958.218,1206.349Z"/><path class="k" d="M956.44,1206.349H955.8c.2.34.4.68.587,1.025C956.406,1207.032,956.424,1206.691,956.44,1206.349Z"/><path class="k" d="M957.626,1214.809a21.526,21.526,0,0,1,3.287-6.736c.434-.572.886-1.137,1.292-1.724h-2.721a20.614,20.614,0,0,0-1.858,3.6Z"/><path class="k" d="M956.389,1214.809v-4.855a20.539,20.539,0,0,0-1.857-3.6H951.81c.407.587.859,1.152,1.292,1.724A21.482,21.482,0,0,1,956.389,1214.809Z"/><path class="k" d="M957.014,1225.6H957l.007.018Z"/><path class="k" d="M978.408,1225.6h-.015l.007.018Z"/><path class="k" d="M977.783,1214.809v-4.855a20.547,20.547,0,0,0-1.857-3.6h-2.721c.406.587.858,1.152,1.291,1.724A21.482,21.482,0,0,1,977.783,1214.809Z"/><path class="k" d="M977.834,1206.349h-.643c.2.34.4.68.587,1.025C977.8,1207.032,977.818,1206.691,977.834,1206.349Z"/><path class="k" d="M970.09,1208.628a17.754,17.754,0,0,0,2.433,5.631c.764,1.29,1.555,2.564,2.31,3.86a51.817,51.817,0,0,1,2.95,5.99v-4.877a43.788,43.788,0,0,0-1.408-5.263,19.045,19.045,0,0,0-2.241-4.529c-.723-1.051-1.6-2-2.27-3.091h-1.9A8.51,8.51,0,0,0,970.09,1208.628Z"/><path class="k" d="M973.6,1305.41c-.764-1.29-1.555-2.563-2.31-3.86a51.743,51.743,0,0,1-2.95-5.989v4.876a43.611,43.611,0,0,0,1.408,5.263,19.022,19.022,0,0,0,2.241,4.529,26.3,26.3,0,0,1,2.774,4.037,6.918,6.918,0,0,1,.531,1.85,7.261,7.261,0,0,0,.739-5.075A17.775,17.775,0,0,0,973.6,1305.41Z"/><path class="k" d="M965.713,1327.152a12.457,12.457,0,0,0,2.005,6.225,12.448,12.448,0,0,0,2.005-6.225c-.041-2.216-1.086-4.326-2.005-6.337C966.8,1322.826,965.754,1324.936,965.713,1327.152Z"/><path class="k" d="M971.623,1311.6a21.5,21.5,0,0,1-3.286-6.736v4.855a25.689,25.689,0,0,0,2.241,4.253,14.224,14.224,0,0,1,1.752,4.281,12.9,12.9,0,0,1,.228,3.46,7.292,7.292,0,0,0,1.72-4.83C974.2,1314.732,972.836,1313.2,971.623,1311.6Z"/><path class="k" d="M967.158,1313.462c-.018-.389-.038-.778-.063-1.166a24.809,24.809,0,0,0-2.811,5.71,11.879,11.879,0,0,0,.549,7.376,30.48,30.48,0,0,1,2.223-5.759C967.188,1317.577,967.113,1315.513,967.158,1313.462Z"/><path class="k" d="M967.1,1300.438v-4.855c-.407.975-.836,1.941-1.3,2.889-1.29,2.647-2.91,5.087-4.368,7.633-1.645,2.873-3.258,6.96-1.288,10.03a7.157,7.157,0,0,1,.817-2.445c.8-1.451,1.981-2.628,2.858-4.025A28.267,28.267,0,0,0,967.1,1300.438Z"/><path class="k" d="M967.1,1309.715v-4.855a21.524,21.524,0,0,1-3.287,6.736c-1.212,1.6-2.572,3.136-2.655,5.283a7.288,7.288,0,0,0,1.721,4.83,12.859,12.859,0,0,1,.228-3.46,14.22,14.22,0,0,1,1.751-4.281A25.837,25.837,0,0,0,967.1,1309.715Z"/><path class="k" d="M968.342,1312.3c-.026.388-.046.777-.063,1.166.045,2.051-.031,4.115.1,6.161a30.518,30.518,0,0,1,2.224,5.759,11.886,11.886,0,0,0,.548-7.376A24.8,24.8,0,0,0,968.342,1312.3Z"/><path class="k" d="M967.718,1294.067h.009l-.007-.019-.008.019Z"/><path class="k" d="M946.324,1294.067h.009l-.008-.019-.007.019Z"/><path class="k" d="M944.319,1327.152a12.457,12.457,0,0,0,2.005,6.225,12.447,12.447,0,0,0,2.005-6.225c-.041-2.216-1.086-4.326-2.005-6.337C945.405,1322.826,944.36,1324.936,944.319,1327.152Z"/><path class="k" d="M952.2,1305.41c-.764-1.29-1.555-2.563-2.31-3.86a51.733,51.733,0,0,1-2.95-5.989v4.876a43.6,43.6,0,0,0,1.408,5.263,19.022,19.022,0,0,0,2.241,4.529,26.3,26.3,0,0,1,2.774,4.037,6.918,6.918,0,0,1,.531,1.85,7.261,7.261,0,0,0,.739-5.075A17.775,17.775,0,0,0,952.2,1305.41Z"/><path class="k" d="M945.706,1309.715v-4.855a21.524,21.524,0,0,1-3.287,6.736c-1.212,1.6-2.572,3.136-2.655,5.283a7.292,7.292,0,0,0,1.72,4.83,12.9,12.9,0,0,1,.229-3.46,14.22,14.22,0,0,1,1.751-4.281A25.837,25.837,0,0,0,945.706,1309.715Z"/><path class="k" d="M945.763,1313.462c-.017-.389-.037-.778-.063-1.166a24.843,24.843,0,0,0-2.81,5.71,11.886,11.886,0,0,0,.548,7.376,30.492,30.492,0,0,1,2.224-5.759C945.794,1317.577,945.719,1315.513,945.763,1313.462Z"/><path class="k" d="M945.706,1300.438v-4.855c-.407.975-.836,1.941-1.3,2.889-1.29,2.647-2.91,5.087-4.368,7.633-1.645,2.873-3.258,6.96-1.288,10.03a7.158,7.158,0,0,1,.817-2.445c.8-1.451,1.981-2.628,2.858-4.025A28.269,28.269,0,0,0,945.706,1300.438Z"/><path class="k" d="M946.948,1312.3c-.026.388-.046.777-.063,1.166.044,2.051-.031,4.115.1,6.161a30.518,30.518,0,0,1,2.224,5.759,11.886,11.886,0,0,0,.548-7.376A24.8,24.8,0,0,0,946.948,1312.3Z"/><path class="k" d="M950.229,1311.6a21.5,21.5,0,0,1-3.286-6.736v4.855a25.68,25.68,0,0,0,2.241,4.253,14.248,14.248,0,0,1,1.752,4.281,12.9,12.9,0,0,1,.228,3.46,7.292,7.292,0,0,0,1.72-4.83C952.8,1314.732,951.442,1313.2,950.229,1311.6Z"/><path class="k" d="M924.369,1313.462c-.017-.389-.037-.778-.063-1.166a24.806,24.806,0,0,0-2.81,5.71,11.886,11.886,0,0,0,.548,7.376,30.484,30.484,0,0,1,2.224-5.759C924.4,1317.577,924.325,1315.513,924.369,1313.462Z"/><path class="k" d="M924.311,1309.715v-4.855a21.5,21.5,0,0,1-3.286,6.736c-1.213,1.6-2.572,3.136-2.655,5.283a7.292,7.292,0,0,0,1.72,4.83,12.944,12.944,0,0,1,.228-3.46,14.248,14.248,0,0,1,1.752-4.281A25.758,25.758,0,0,0,924.311,1309.715Z"/><path class="k" d="M924.93,1294.067h.009l-.008-.019-.007.019Z"/><path class="k" d="M925.553,1312.3q-.037.582-.062,1.166c.044,2.051-.031,4.115.1,6.161a30.509,30.509,0,0,1,2.224,5.759,11.886,11.886,0,0,0,.548-7.376A24.809,24.809,0,0,0,925.553,1312.3Z"/><path class="k" d="M928.835,1311.6a21.5,21.5,0,0,1-3.286-6.736v4.855a25.684,25.684,0,0,0,2.241,4.253,14.22,14.22,0,0,1,1.751,4.281,12.9,12.9,0,0,1,.229,3.46,7.292,7.292,0,0,0,1.72-4.83C931.407,1314.732,930.047,1313.2,928.835,1311.6Z"/><path class="k" d="M924.311,1300.438v-4.855c-.406.975-.835,1.941-1.3,2.889-1.29,2.647-2.91,5.087-4.368,7.633-1.645,2.873-3.258,6.96-1.288,10.03a7.136,7.136,0,0,1,.817-2.445c.8-1.451,1.981-2.628,2.858-4.025A28.244,28.244,0,0,0,924.311,1300.438Z"/><path class="k" d="M930.809,1305.41c-.764-1.29-1.555-2.563-2.31-3.86a51.723,51.723,0,0,1-2.95-5.989v4.876a43.42,43.42,0,0,0,1.408,5.263,18.985,18.985,0,0,0,2.241,4.529,26.29,26.29,0,0,1,2.774,4.037,6.88,6.88,0,0,1,.53,1.85,7.256,7.256,0,0,0,.74-5.075A17.776,17.776,0,0,0,930.809,1305.41Z"/><path class="k" d="M922.925,1327.152a12.457,12.457,0,0,0,2.005,6.225,12.457,12.457,0,0,0,2.005-6.225c-.041-2.216-1.086-4.326-2.005-6.337C924.011,1322.826,922.966,1324.936,922.925,1327.152Z"/><path class="k" d="M907.441,1311.6a21.525,21.525,0,0,1-3.287-6.736v4.855a25.768,25.768,0,0,0,2.242,4.253,14.22,14.22,0,0,1,1.751,4.281,12.862,12.862,0,0,1,.228,3.46,7.288,7.288,0,0,0,1.721-4.83C910.013,1314.732,908.653,1313.2,907.441,1311.6Z"/><path class="k" d="M904.159,1312.3c-.025.388-.045.777-.063,1.166.045,2.051-.03,4.115.1,6.161a30.444,30.444,0,0,1,2.223,5.759,11.879,11.879,0,0,0,.549-7.376A24.807,24.807,0,0,0,904.159,1312.3Z"/><path class="k" d="M902.917,1309.715v-4.855a21.5,21.5,0,0,1-3.286,6.736c-1.213,1.6-2.572,3.136-2.655,5.283a7.292,7.292,0,0,0,1.72,4.83,12.9,12.9,0,0,1,.228-3.46,14.246,14.246,0,0,1,1.752-4.281A25.762,25.762,0,0,0,902.917,1309.715Z"/><path class="k" d="M903.536,1294.067h.008l-.007-.019-.007.019Z"/><path class="k" d="M902.917,1300.438v-4.855c-.406.975-.835,1.941-1.3,2.889-1.29,2.647-2.91,5.087-4.368,7.633-1.645,2.873-3.258,6.96-1.288,10.03a7.136,7.136,0,0,1,.817-2.445c.8-1.451,1.98-2.628,2.858-4.025A28.243,28.243,0,0,0,902.917,1300.438Z"/><path class="k" d="M909.415,1305.41c-.765-1.29-1.555-2.563-2.31-3.86a51.907,51.907,0,0,1-2.951-5.989v4.876a43.615,43.615,0,0,0,1.409,5.263,18.985,18.985,0,0,0,2.241,4.529,26.29,26.29,0,0,1,2.774,4.037,6.913,6.913,0,0,1,.53,1.85,7.256,7.256,0,0,0,.74-5.075A17.775,17.775,0,0,0,909.415,1305.41Z"/><path class="k" d="M901.53,1327.152a12.457,12.457,0,0,0,2.006,6.225,12.457,12.457,0,0,0,2.005-6.225c-.041-2.216-1.086-4.326-2.005-6.337C902.617,1322.826,901.572,1324.936,901.53,1327.152Z"/><path class="k" d="M902.975,1313.462c-.017-.389-.037-.778-.063-1.166a24.8,24.8,0,0,0-2.81,5.71,11.886,11.886,0,0,0,.548,7.376,30.484,30.484,0,0,1,2.224-5.759C903.006,1317.577,902.93,1315.513,902.975,1313.462Z"/><path class="k" d="M882.141,1294.067h.009l-.007-.019-.007.019Z"/><path class="k" d="M881.523,1300.438v-4.855c-.406.975-.835,1.941-1.3,2.889-1.29,2.647-2.91,5.087-4.369,7.633-1.644,2.873-3.257,6.96-1.287,10.03a7.113,7.113,0,0,1,.817-2.445c.8-1.451,1.98-2.628,2.858-4.025A28.267,28.267,0,0,0,881.523,1300.438Z"/><path class="k" d="M881.523,1309.715v-4.855a21.482,21.482,0,0,1-3.287,6.736c-1.212,1.6-2.571,3.136-2.654,5.283a7.292,7.292,0,0,0,1.72,4.83,12.9,12.9,0,0,1,.228-3.46,14.222,14.222,0,0,1,1.752-4.281A25.758,25.758,0,0,0,881.523,1309.715Z"/><path class="k" d="M882.765,1312.3c-.025.388-.045.777-.063,1.166.045,2.051-.03,4.115.1,6.161a30.444,30.444,0,0,1,2.223,5.759,11.872,11.872,0,0,0,.548-7.376A24.764,24.764,0,0,0,882.765,1312.3Z"/><path class="k" d="M888.021,1305.41c-.765-1.29-1.555-2.563-2.31-3.86a51.9,51.9,0,0,1-2.951-5.989v4.876a43.781,43.781,0,0,0,1.408,5.263,19.025,19.025,0,0,0,2.242,4.529,26.364,26.364,0,0,1,2.774,4.037,6.918,6.918,0,0,1,.53,1.85,7.261,7.261,0,0,0,.74-5.075A17.775,17.775,0,0,0,888.021,1305.41Z"/><path class="k" d="M881.581,1313.462q-.025-.584-.063-1.166a24.8,24.8,0,0,0-2.81,5.71,11.886,11.886,0,0,0,.548,7.376,30.426,30.426,0,0,1,2.224-5.759C881.612,1317.577,881.536,1315.513,881.581,1313.462Z"/><path class="k" d="M880.136,1327.152a12.458,12.458,0,0,0,2.006,6.225,12.457,12.457,0,0,0,2-6.225c-.041-2.216-1.086-4.326-2-6.337C881.223,1322.826,880.178,1324.936,880.136,1327.152Z"/><path class="k" d="M886.047,1311.6a21.524,21.524,0,0,1-3.287-6.736v4.855a25.832,25.832,0,0,0,2.241,4.253,14.2,14.2,0,0,1,1.752,4.281,12.862,12.862,0,0,1,.228,3.46,7.288,7.288,0,0,0,1.721-4.83C888.619,1314.732,887.259,1313.2,886.047,1311.6Z"/><path class="k" d="M864.653,1311.6a21.524,21.524,0,0,1-3.287-6.736v4.855a25.832,25.832,0,0,0,2.241,4.253,14.2,14.2,0,0,1,1.752,4.281,12.859,12.859,0,0,1,.228,3.46,7.288,7.288,0,0,0,1.721-4.83C867.225,1314.732,865.865,1313.2,864.653,1311.6Z"/><path class="k" d="M866.626,1305.41c-.764-1.29-1.554-2.563-2.309-3.86a51.73,51.73,0,0,1-2.951-5.989v4.876a43.781,43.781,0,0,0,1.408,5.263,19.025,19.025,0,0,0,2.242,4.529,26.36,26.36,0,0,1,2.774,4.037,6.916,6.916,0,0,1,.53,1.85,7.261,7.261,0,0,0,.74-5.075A17.755,17.755,0,0,0,866.626,1305.41Z"/><path class="k" d="M860.129,1300.438v-4.855c-.406.975-.835,1.941-1.3,2.889-1.29,2.647-2.911,5.087-4.369,7.633-1.645,2.873-3.257,6.96-1.287,10.03a7.114,7.114,0,0,1,.817-2.445c.8-1.451,1.98-2.628,2.858-4.025A28.268,28.268,0,0,0,860.129,1300.438Z"/><path class="k" d="M860.129,1309.715v-4.855a21.481,21.481,0,0,1-3.287,6.736c-1.212,1.6-2.572,3.136-2.655,5.283a7.3,7.3,0,0,0,1.721,4.83,12.9,12.9,0,0,1,.228-3.46,14.223,14.223,0,0,1,1.752-4.281A25.763,25.763,0,0,0,860.129,1309.715Z"/><path class="k" d="M858.742,1327.152a12.458,12.458,0,0,0,2.006,6.225,12.457,12.457,0,0,0,2.005-6.225c-.041-2.216-1.086-4.326-2.005-6.337C859.828,1322.826,858.784,1324.936,858.742,1327.152Z"/><path class="k" d="M861.371,1312.3q-.037.582-.063,1.166c.045,2.051-.03,4.115.1,6.161a30.506,30.506,0,0,1,2.223,5.759,11.872,11.872,0,0,0,.548-7.376A24.764,24.764,0,0,0,861.371,1312.3Z"/><path class="k" d="M860.187,1313.462q-.026-.584-.063-1.166a24.8,24.8,0,0,0-2.81,5.71,11.886,11.886,0,0,0,.548,7.376,30.418,30.418,0,0,1,2.224-5.759C860.218,1317.577,860.142,1315.513,860.187,1313.462Z"/><path class="k" d="M860.747,1294.067h.009l-.007-.019-.007.019Z"/><path class="k" d="M852.9,1248.489a25.767,25.767,0,0,0-2.241,4.254v4.854a21.465,21.465,0,0,1,3.287-6.735c1.212-1.6,2.572-3.137,2.655-5.284a7.3,7.3,0,0,0-1.721-4.829,12.9,12.9,0,0,1-.228,3.46A14.215,14.215,0,0,1,852.9,1248.489Z"/><path class="k" d="M857.609,1246.323a7.121,7.121,0,0,1-.817,2.445c-.8,1.45-1.98,2.627-2.858,4.024a28.271,28.271,0,0,0-3.278,9.228v4.855c.406-.976.835-1.941,1.3-2.89,1.29-2.647,2.911-5.087,4.369-7.633C857.967,1253.48,859.579,1249.393,857.609,1246.323Z"/><path class="k" d="M853.471,1244.452a11.885,11.885,0,0,0-.548-7.376,30.434,30.434,0,0,1-2.224,5.758c-.132,2.046-.056,4.111-.1,6.162.017.389.038.777.063,1.166A24.842,24.842,0,0,0,853.471,1244.452Z"/><path class="k" d="M850.044,1229.093v12.535c.918-2.007,1.957-4.112,2-6.322A12.438,12.438,0,0,0,850.044,1229.093Z"/><path class="k" d="M872.094,1242.834c-.133,2.046-.057,4.111-.1,6.162.017.389.038.777.063,1.166a24.842,24.842,0,0,0,2.81-5.71,11.885,11.885,0,0,0-.548-7.376A30.5,30.5,0,0,1,872.094,1242.834Z"/><path class="k" d="M871.432,1268.391h-.009l.007.018.007-.018Z"/><path class="k" d="M878.186,1248.768c-.8,1.45-1.98,2.627-2.858,4.024a28.272,28.272,0,0,0-3.278,9.228v4.855c.407-.976.835-1.941,1.3-2.89,1.289-2.647,2.91-5.087,4.368-7.633,1.645-2.872,3.257-6.959,1.287-10.029A7.118,7.118,0,0,1,878.186,1248.768Z"/><path class="k" d="M872.05,1252.743v4.854a21.465,21.465,0,0,1,3.287-6.735c1.212-1.6,2.572-3.137,2.655-5.284a7.3,7.3,0,0,0-1.721-4.829,12.9,12.9,0,0,1-.228,3.46,14.219,14.219,0,0,1-1.752,4.28A25.762,25.762,0,0,0,872.05,1252.743Z"/><path class="k" d="M873.437,1235.306a12.458,12.458,0,0,0-2.006-6.225,12.456,12.456,0,0,0-2.005,6.225c.041,2.216,1.086,4.325,2.005,6.336C872.351,1239.631,873.4,1237.522,873.437,1235.306Z"/><path class="k" d="M863.859,1246.342a7.253,7.253,0,0,0-.739,5.074,17.732,17.732,0,0,0,2.433,5.631c.764,1.29,1.554,2.564,2.309,3.86a51.647,51.647,0,0,1,2.951,5.99v-4.876a43.8,43.8,0,0,0-1.408-5.264,19.047,19.047,0,0,0-2.242-4.529,26.4,26.4,0,0,1-2.774-4.036A6.928,6.928,0,0,1,863.859,1246.342Z"/><path class="k" d="M870.871,1249c-.045-2.051.03-4.116-.1-6.162a30.5,30.5,0,0,1-2.223-5.758,11.871,11.871,0,0,0-.548,7.376,24.8,24.8,0,0,0,2.81,5.71C870.833,1249.773,870.854,1249.385,870.871,1249Z"/><path class="k" d="M864.871,1245.578c.083,2.147,1.443,3.683,2.655,5.284a21.508,21.508,0,0,1,3.287,6.735v-4.854a25.836,25.836,0,0,0-2.241-4.254,14.192,14.192,0,0,1-1.752-4.28,12.862,12.862,0,0,1-.228-3.46A7.286,7.286,0,0,0,864.871,1245.578Z"/><path class="k" d="M892.826,1268.391h-.009l.007.018.007-.018Z"/><path class="k" d="M894.831,1235.306a12.458,12.458,0,0,0-2.006-6.225,12.467,12.467,0,0,0-2.005,6.225c.041,2.216,1.086,4.325,2.005,6.336C893.745,1239.631,894.79,1237.522,894.831,1235.306Z"/><path class="k" d="M893.488,1242.834c-.133,2.046-.057,4.111-.1,6.162.017.389.038.777.063,1.166a24.8,24.8,0,0,0,2.81-5.71,11.878,11.878,0,0,0-.548-7.376A30.5,30.5,0,0,1,893.488,1242.834Z"/><path class="k" d="M885.253,1246.342a7.253,7.253,0,0,0-.739,5.074,17.732,17.732,0,0,0,2.433,5.631c.764,1.29,1.554,2.564,2.31,3.86a51.807,51.807,0,0,1,2.95,5.99v-4.876a43.8,43.8,0,0,0-1.408-5.264,19.078,19.078,0,0,0-2.241-4.529,26.335,26.335,0,0,1-2.775-4.036A6.926,6.926,0,0,1,885.253,1246.342Z"/><path class="k" d="M892.265,1249c-.045-2.051.031-4.116-.1-6.162a30.5,30.5,0,0,1-2.223-5.758,11.878,11.878,0,0,0-.548,7.376,24.8,24.8,0,0,0,2.81,5.71C892.227,1249.773,892.248,1249.385,892.265,1249Z"/><path class="k" d="M893.444,1252.743v4.854a21.487,21.487,0,0,1,3.287-6.735c1.212-1.6,2.572-3.137,2.655-5.284a7.3,7.3,0,0,0-1.721-4.829,12.9,12.9,0,0,1-.228,3.46,14.19,14.19,0,0,1-1.752,4.28A25.841,25.841,0,0,0,893.444,1252.743Z"/><path class="k" d="M886.265,1245.578c.083,2.147,1.443,3.683,2.655,5.284a21.486,21.486,0,0,1,3.287,6.735v-4.854a25.836,25.836,0,0,0-2.241-4.254,14.192,14.192,0,0,1-1.752-4.28,12.859,12.859,0,0,1-.228-3.46A7.285,7.285,0,0,0,886.265,1245.578Z"/><path class="k" d="M899.58,1248.768c-.8,1.45-1.98,2.627-2.858,4.024a28.274,28.274,0,0,0-3.278,9.228v4.855c.407-.976.835-1.941,1.3-2.89,1.29-2.647,2.91-5.087,4.368-7.633,1.645-2.872,3.257-6.959,1.288-10.029A7.143,7.143,0,0,1,899.58,1248.768Z"/><path class="k" d="M907.659,1245.578c.083,2.147,1.443,3.683,2.655,5.284a21.486,21.486,0,0,1,3.287,6.735v-4.854a25.841,25.841,0,0,0-2.241-4.254,14.193,14.193,0,0,1-1.752-4.28,12.9,12.9,0,0,1-.228-3.46A7.3,7.3,0,0,0,907.659,1245.578Z"/><path class="k" d="M914.22,1268.391h-.009l.007.018.007-.018Z"/><path class="k" d="M913.659,1249c-.045-2.051.031-4.116-.1-6.162a30.5,30.5,0,0,1-2.223-5.758,11.878,11.878,0,0,0-.548,7.376,24.8,24.8,0,0,0,2.81,5.71C913.621,1249.773,913.642,1249.385,913.659,1249Z"/><path class="k" d="M906.647,1246.342a7.253,7.253,0,0,0-.739,5.074,17.73,17.73,0,0,0,2.433,5.631c.764,1.29,1.555,2.564,2.31,3.86a51.817,51.817,0,0,1,2.95,5.99v-4.876a43.81,43.81,0,0,0-1.408-5.264,19.081,19.081,0,0,0-2.241-4.529,26.336,26.336,0,0,1-2.775-4.036A6.926,6.926,0,0,1,906.647,1246.342Z"/><path class="k" d="M914.882,1242.834c-.133,2.046-.057,4.111-.1,6.162.017.389.038.777.063,1.166a24.8,24.8,0,0,0,2.81-5.71,11.878,11.878,0,0,0-.548-7.376A30.5,30.5,0,0,1,914.882,1242.834Z"/><path class="k" d="M920.974,1248.768c-.8,1.45-1.98,2.627-2.857,4.024a28.25,28.25,0,0,0-3.279,9.228v4.855c.407-.976.835-1.941,1.3-2.89,1.29-2.647,2.91-5.087,4.368-7.633,1.645-2.872,3.257-6.959,1.288-10.029A7.143,7.143,0,0,1,920.974,1248.768Z"/><path class="k" d="M914.838,1252.743v4.854a21.486,21.486,0,0,1,3.287-6.735c1.212-1.6,2.572-3.137,2.655-5.284a7.286,7.286,0,0,0-1.721-4.829,12.9,12.9,0,0,1-.228,3.46,14.19,14.19,0,0,1-1.752,4.28A25.836,25.836,0,0,0,914.838,1252.743Z"/><path class="k" d="M916.225,1235.306a12.466,12.466,0,0,0-2.005-6.225,12.458,12.458,0,0,0-2.006,6.225c.041,2.216,1.086,4.325,2.006,6.336C915.139,1239.631,916.184,1237.522,916.225,1235.306Z"/><path class="k" d="M942.368,1248.768c-.8,1.45-1.98,2.627-2.857,4.024a28.275,28.275,0,0,0-3.279,9.228v4.855c.407-.976.836-1.941,1.3-2.89,1.29-2.647,2.91-5.087,4.368-7.633,1.645-2.872,3.257-6.959,1.288-10.029A7.141,7.141,0,0,1,942.368,1248.768Z"/><path class="k" d="M935.614,1268.391H935.6l.007.018.007-.018Z"/><path class="k" d="M935.053,1249c-.045-2.051.031-4.116-.1-6.162a30.5,30.5,0,0,1-2.223-5.758,11.885,11.885,0,0,0-.548,7.376,24.842,24.842,0,0,0,2.81,5.71C935.015,1249.773,935.036,1249.385,935.053,1249Z"/><path class="k" d="M936.232,1252.743v4.854a21.508,21.508,0,0,1,3.287-6.735c1.212-1.6,2.572-3.137,2.655-5.284a7.285,7.285,0,0,0-1.721-4.829,12.862,12.862,0,0,1-.228,3.46,14.192,14.192,0,0,1-1.752,4.28A25.841,25.841,0,0,0,936.232,1252.743Z"/><path class="k" d="M929.053,1245.578c.083,2.147,1.443,3.683,2.655,5.284a21.465,21.465,0,0,1,3.287,6.735v-4.854a25.767,25.767,0,0,0-2.241-4.254,14.192,14.192,0,0,1-1.752-4.28,12.9,12.9,0,0,1-.228-3.46A7.3,7.3,0,0,0,929.053,1245.578Z"/><path class="k" d="M936.276,1242.834c-.132,2.046-.057,4.111-.1,6.162.017.389.038.777.063,1.166a24.8,24.8,0,0,0,2.81-5.71,11.871,11.871,0,0,0-.548-7.376A30.505,30.505,0,0,1,936.276,1242.834Z"/><path class="k" d="M928.041,1246.342a7.253,7.253,0,0,0-.739,5.074,17.755,17.755,0,0,0,2.433,5.631c.764,1.29,1.555,2.564,2.31,3.86a51.8,51.8,0,0,1,2.95,5.99v-4.876a43.81,43.81,0,0,0-1.408-5.264,19.039,19.039,0,0,0-2.241-4.529,26.34,26.34,0,0,1-2.775-4.036A6.964,6.964,0,0,1,928.041,1246.342Z"/><path class="k" d="M937.619,1235.306a12.457,12.457,0,0,0-2.005-6.225,12.458,12.458,0,0,0-2.006,6.225c.042,2.216,1.086,4.325,2.006,6.336C936.533,1239.631,937.578,1237.522,937.619,1235.306Z"/><path class="k" d="M950.448,1245.578c.082,2.147,1.442,3.683,2.654,5.284a21.464,21.464,0,0,1,3.287,6.735v-4.854a25.762,25.762,0,0,0-2.241-4.254,14.217,14.217,0,0,1-1.752-4.28,12.9,12.9,0,0,1-.228-3.46A7.29,7.29,0,0,0,950.448,1245.578Z"/><path class="k" d="M949.435,1246.342a7.253,7.253,0,0,0-.739,5.074,17.754,17.754,0,0,0,2.433,5.631c.764,1.29,1.555,2.564,2.31,3.86a51.807,51.807,0,0,1,2.95,5.99v-4.876a43.8,43.8,0,0,0-1.408-5.264,19.042,19.042,0,0,0-2.241-4.529,26.26,26.26,0,0,1-2.774-4.036A6.929,6.929,0,0,1,949.435,1246.342Z"/><path class="k" d="M956.447,1249c-.045-2.051.031-4.116-.1-6.162a30.434,30.434,0,0,1-2.224-5.758,11.885,11.885,0,0,0-.548,7.376,24.847,24.847,0,0,0,2.81,5.71C956.409,1249.773,956.43,1249.385,956.447,1249Z"/><path class="k" d="M957.626,1252.743v4.854a21.508,21.508,0,0,1,3.287-6.735c1.212-1.6,2.572-3.137,2.655-5.284a7.285,7.285,0,0,0-1.721-4.829,12.859,12.859,0,0,1-.228,3.46,14.192,14.192,0,0,1-1.752,4.28A25.841,25.841,0,0,0,957.626,1252.743Z"/><path class="k" d="M957.008,1268.391H957l.007.018.008-.018Z"/><path class="k" d="M959.013,1235.306a12.457,12.457,0,0,0-2.005-6.225,12.458,12.458,0,0,0-2.006,6.225c.042,2.216,1.086,4.325,2.006,6.336C957.927,1239.631,958.972,1237.522,959.013,1235.306Z"/><path class="k" d="M957.67,1242.834c-.132,2.046-.057,4.111-.1,6.162.017.389.038.777.063,1.166a24.8,24.8,0,0,0,2.81-5.71,11.871,11.871,0,0,0-.548-7.376A30.5,30.5,0,0,1,957.67,1242.834Z"/><path class="k" d="M963.762,1248.768c-.8,1.45-1.98,2.627-2.857,4.024a28.274,28.274,0,0,0-3.279,9.228v4.855c.407-.976.836-1.941,1.3-2.89,1.29-2.647,2.91-5.087,4.368-7.633,1.645-2.872,3.257-6.959,1.288-10.029A7.143,7.143,0,0,1,963.762,1248.768Z"/><path class="k" d="M974.134,1252.228a26.264,26.264,0,0,1-2.774-4.036,6.931,6.931,0,0,1-.531-1.85,7.258,7.258,0,0,0-.739,5.074,17.752,17.752,0,0,0,2.433,5.631c.764,1.29,1.555,2.564,2.31,3.86a51.817,51.817,0,0,1,2.95,5.99v-4.876a43.81,43.81,0,0,0-1.408-5.264A19.042,19.042,0,0,0,974.134,1252.228Z"/><path class="k" d="M973.79,1244.209a12.9,12.9,0,0,1-.228-3.46,7.29,7.29,0,0,0-1.72,4.829c.083,2.147,1.442,3.683,2.654,5.284a21.464,21.464,0,0,1,3.287,6.735v-4.854a25.762,25.762,0,0,0-2.241-4.254A14.22,14.22,0,0,1,973.79,1244.209Z"/><path class="k" d="M974.968,1244.452a24.842,24.842,0,0,0,2.81,5.71c.025-.389.046-.777.063-1.166-.045-2.051.031-4.116-.1-6.162a30.438,30.438,0,0,1-2.224-5.758A11.885,11.885,0,0,0,974.968,1244.452Z"/><path class="k" d="M978.408,1268.392h-.015l.007.018Z"/><path class="k" d="M976.4,1235.306c.042,2.216,1.087,4.325,2.006,6.336l.006-.014v-12.535l-.006-.012A12.458,12.458,0,0,0,976.4,1235.306Z"/><path class="k" d="M967.718,1251.278h.009l-.007-.018-.008.019Z"/><path class="k" d="M960.146,1273.347a7.161,7.161,0,0,1,.817-2.446c.8-1.45,1.981-2.627,2.858-4.024a28.266,28.266,0,0,0,3.279-9.227v-4.856c-.407.976-.836,1.941-1.3,2.89-1.29,2.647-2.91,5.087-4.368,7.633C959.789,1266.19,958.176,1270.277,960.146,1273.347Z"/><path class="k" d="M974.278,1274.091c-.083-2.147-1.442-3.682-2.655-5.283a21.5,21.5,0,0,1-3.286-6.736v4.855a25.694,25.694,0,0,0,2.241,4.253,14.224,14.224,0,0,1,1.752,4.281,12.9,12.9,0,0,1,.228,3.46A7.292,7.292,0,0,0,974.278,1274.091Z"/><path class="k" d="M975.291,1273.328a7.261,7.261,0,0,0,.739-5.075,17.777,17.777,0,0,0-2.433-5.631c-.764-1.29-1.555-2.564-2.31-3.86a51.66,51.66,0,0,1-2.95-5.99v4.877a43.611,43.611,0,0,0,1.408,5.263,19.026,19.026,0,0,0,2.241,4.529,26.3,26.3,0,0,1,2.774,4.037A6.916,6.916,0,0,1,975.291,1273.328Z"/><path class="k" d="M967.1,1266.927v-4.855a21.525,21.525,0,0,1-3.287,6.736c-1.212,1.6-2.572,3.136-2.655,5.283a7.288,7.288,0,0,0,1.721,4.83,12.859,12.859,0,0,1,.228-3.46,14.22,14.22,0,0,1,1.751-4.281A25.842,25.842,0,0,0,967.1,1266.927Z"/><path class="k" d="M967.718,1278.027c-.919,2.011-1.964,4.121-2.005,6.337a12.457,12.457,0,0,0,2.005,6.225,12.448,12.448,0,0,0,2.005-6.225C969.682,1282.148,968.637,1280.038,967.718,1278.027Z"/><path class="k" d="M971.152,1275.217a24.814,24.814,0,0,0-2.81-5.709c-.026.388-.046.776-.063,1.165.045,2.052-.031,4.116.1,6.162a30.519,30.519,0,0,1,2.224,5.759A11.889,11.889,0,0,0,971.152,1275.217Z"/><path class="k" d="M967.158,1270.673c-.018-.389-.038-.777-.063-1.165a24.819,24.819,0,0,0-2.811,5.709,11.882,11.882,0,0,0,.549,7.377,30.478,30.478,0,0,1,2.223-5.759C967.188,1274.789,967.113,1272.725,967.158,1270.673Z"/><path class="k" d="M946.324,1278.027c-.919,2.011-1.964,4.121-2.005,6.337a12.457,12.457,0,0,0,2.005,6.225,12.447,12.447,0,0,0,2.005-6.225C948.288,1282.148,947.243,1280.038,946.324,1278.027Z"/><path class="k" d="M949.758,1275.217a24.814,24.814,0,0,0-2.81-5.709c-.026.388-.046.776-.063,1.165.044,2.052-.031,4.116.1,6.162a30.519,30.519,0,0,1,2.224,5.759A11.889,11.889,0,0,0,949.758,1275.217Z"/><path class="k" d="M952.884,1274.091c-.083-2.147-1.442-3.682-2.655-5.283a21.5,21.5,0,0,1-3.286-6.736v4.855a25.685,25.685,0,0,0,2.241,4.253,14.248,14.248,0,0,1,1.752,4.281,12.9,12.9,0,0,1,.228,3.46A7.292,7.292,0,0,0,952.884,1274.091Z"/><path class="k" d="M946.324,1251.278h.009l-.008-.018-.007.019Z"/><path class="k" d="M946.943,1257.649a43.6,43.6,0,0,0,1.408,5.263,19.026,19.026,0,0,0,2.241,4.529,26.3,26.3,0,0,1,2.774,4.037,6.916,6.916,0,0,1,.531,1.85,7.261,7.261,0,0,0,.739-5.075,17.776,17.776,0,0,0-2.433-5.631c-.764-1.29-1.555-2.564-2.31-3.86a51.65,51.65,0,0,1-2.95-5.99Z"/><path class="k" d="M945.763,1270.673c-.017-.389-.037-.777-.063-1.165a24.853,24.853,0,0,0-2.81,5.709,11.889,11.889,0,0,0,.548,7.377,30.49,30.49,0,0,1,2.224-5.759C945.794,1274.789,945.719,1272.725,945.763,1270.673Z"/><path class="k" d="M945.706,1266.927v-4.855a21.525,21.525,0,0,1-3.287,6.736c-1.212,1.6-2.572,3.136-2.655,5.283a7.292,7.292,0,0,0,1.72,4.83,12.9,12.9,0,0,1,.229-3.46,14.22,14.22,0,0,1,1.751-4.281A25.842,25.842,0,0,0,945.706,1266.927Z"/><path class="k" d="M938.752,1273.347a7.162,7.162,0,0,1,.817-2.446c.8-1.45,1.981-2.627,2.858-4.024a28.267,28.267,0,0,0,3.279-9.227v-4.856c-.407.976-.836,1.941-1.3,2.89-1.29,2.647-2.91,5.087-4.368,7.633C938.4,1266.19,936.782,1270.277,938.752,1273.347Z"/><path class="k" d="M924.93,1251.278h.009l-.008-.018-.007.019Z"/><path class="k" d="M925.549,1257.649a43.42,43.42,0,0,0,1.408,5.263,18.99,18.99,0,0,0,2.241,4.529,26.29,26.29,0,0,1,2.774,4.037,6.878,6.878,0,0,1,.53,1.85,7.256,7.256,0,0,0,.74-5.075,17.778,17.778,0,0,0-2.433-5.631c-.764-1.29-1.555-2.564-2.31-3.86a51.64,51.64,0,0,1-2.95-5.99Z"/><path class="k" d="M931.49,1274.091c-.083-2.147-1.443-3.682-2.655-5.283a21.5,21.5,0,0,1-3.286-6.736v4.855a25.689,25.689,0,0,0,2.241,4.253,14.22,14.22,0,0,1,1.751,4.281,12.9,12.9,0,0,1,.229,3.46A7.293,7.293,0,0,0,931.49,1274.091Z"/><path class="k" d="M924.93,1278.027c-.919,2.011-1.964,4.121-2.005,6.337a12.457,12.457,0,0,0,2.005,6.225,12.457,12.457,0,0,0,2.005-6.225C926.894,1282.148,925.849,1280.038,924.93,1278.027Z"/><path class="k" d="M928.364,1275.217a24.82,24.82,0,0,0-2.811-5.709q-.037.582-.062,1.165c.044,2.052-.031,4.116.1,6.162a30.511,30.511,0,0,1,2.224,5.759A11.889,11.889,0,0,0,928.364,1275.217Z"/><path class="k" d="M917.358,1273.347a7.14,7.14,0,0,1,.817-2.446c.8-1.45,1.981-2.627,2.858-4.024a28.243,28.243,0,0,0,3.278-9.227v-4.856c-.406.976-.835,1.941-1.3,2.89-1.29,2.647-2.91,5.087-4.368,7.633C917,1266.19,915.388,1270.277,917.358,1273.347Z"/><path class="k" d="M924.369,1270.673c-.017-.389-.037-.777-.063-1.165a24.816,24.816,0,0,0-2.81,5.709,11.889,11.889,0,0,0,.548,7.377,30.482,30.482,0,0,1,2.224-5.759C924.4,1274.789,924.325,1272.725,924.369,1270.673Z"/><path class="k" d="M924.311,1266.927v-4.855a21.5,21.5,0,0,1-3.286,6.736c-1.213,1.6-2.572,3.136-2.655,5.283a7.292,7.292,0,0,0,1.72,4.83,12.944,12.944,0,0,1,.228-3.46,14.248,14.248,0,0,1,1.752-4.281A25.763,25.763,0,0,0,924.311,1266.927Z"/><path class="k" d="M902.975,1270.673c-.017-.389-.037-.777-.063-1.165a24.814,24.814,0,0,0-2.81,5.709,11.888,11.888,0,0,0,.548,7.377,30.482,30.482,0,0,1,2.224-5.759C903.006,1274.789,902.93,1272.725,902.975,1270.673Z"/><path class="k" d="M904.154,1257.649a43.615,43.615,0,0,0,1.409,5.263,18.99,18.99,0,0,0,2.241,4.529,26.29,26.29,0,0,1,2.774,4.037,6.911,6.911,0,0,1,.53,1.85,7.256,7.256,0,0,0,.74-5.075,17.777,17.777,0,0,0-2.433-5.631c-.765-1.29-1.555-2.564-2.31-3.86a51.824,51.824,0,0,1-2.951-5.99Z"/><path class="k" d="M910.1,1274.091c-.083-2.147-1.443-3.682-2.655-5.283a21.527,21.527,0,0,1-3.287-6.736v4.855a25.772,25.772,0,0,0,2.242,4.253,14.22,14.22,0,0,1,1.751,4.281,12.861,12.861,0,0,1,.228,3.46A7.288,7.288,0,0,0,910.1,1274.091Z"/><path class="k" d="M906.97,1275.217a24.817,24.817,0,0,0-2.811-5.709c-.025.388-.045.776-.063,1.165.045,2.052-.03,4.116.1,6.162a30.445,30.445,0,0,1,2.223,5.759A11.882,11.882,0,0,0,906.97,1275.217Z"/><path class="k" d="M903.536,1278.027c-.919,2.011-1.964,4.121-2.006,6.337a12.457,12.457,0,0,0,2.006,6.225,12.457,12.457,0,0,0,2.005-6.225C905.5,1282.148,904.455,1280.038,903.536,1278.027Z"/><path class="k" d="M903.536,1251.278h.008l-.007-.018-.007.019Z"/><path class="k" d="M895.964,1273.347a7.14,7.14,0,0,1,.817-2.446c.8-1.45,1.98-2.627,2.858-4.024a28.241,28.241,0,0,0,3.278-9.227v-4.856c-.406.976-.835,1.941-1.3,2.89-1.29,2.647-2.91,5.087-4.368,7.633C895.607,1266.19,893.994,1270.277,895.964,1273.347Z"/><path class="k" d="M902.917,1266.927v-4.855a21.5,21.5,0,0,1-3.286,6.736c-1.213,1.6-2.572,3.136-2.655,5.283a7.292,7.292,0,0,0,1.72,4.83,12.9,12.9,0,0,1,.228-3.46,14.246,14.246,0,0,1,1.752-4.281A25.767,25.767,0,0,0,902.917,1266.927Z"/><path class="k" d="M882.141,1251.278h.009l-.007-.018-.007.019Z"/><path class="k" d="M888.7,1274.091c-.083-2.147-1.443-3.682-2.655-5.283a21.525,21.525,0,0,1-3.287-6.736v4.855A25.837,25.837,0,0,0,885,1271.18a14.2,14.2,0,0,1,1.752,4.281,12.861,12.861,0,0,1,.228,3.46A7.289,7.289,0,0,0,888.7,1274.091Z"/><path class="k" d="M882.76,1257.649a43.781,43.781,0,0,0,1.408,5.263,19.029,19.029,0,0,0,2.242,4.529,26.364,26.364,0,0,1,2.774,4.037,6.915,6.915,0,0,1,.53,1.85,7.261,7.261,0,0,0,.74-5.075,17.776,17.776,0,0,0-2.433-5.631c-.765-1.29-1.555-2.564-2.31-3.86a51.814,51.814,0,0,1-2.951-5.99Z"/><path class="k" d="M882.142,1278.027c-.919,2.011-1.964,4.121-2.006,6.337a12.458,12.458,0,0,0,2.006,6.225,12.457,12.457,0,0,0,2-6.225C884.106,1282.148,883.061,1280.038,882.142,1278.027Z"/><path class="k" d="M881.523,1266.927v-4.855a21.483,21.483,0,0,1-3.287,6.736c-1.212,1.6-2.571,3.136-2.654,5.283a7.293,7.293,0,0,0,1.72,4.83,12.9,12.9,0,0,1,.228-3.46,14.222,14.222,0,0,1,1.752-4.281A25.763,25.763,0,0,0,881.523,1266.927Z"/><path class="k" d="M885.575,1275.217a24.774,24.774,0,0,0-2.81-5.709c-.025.388-.045.776-.063,1.165.045,2.052-.03,4.116.1,6.162a30.445,30.445,0,0,1,2.223,5.759A11.874,11.874,0,0,0,885.575,1275.217Z"/><path class="k" d="M881.581,1270.673q-.025-.583-.063-1.165a24.814,24.814,0,0,0-2.81,5.709,11.889,11.889,0,0,0,.548,7.377,30.424,30.424,0,0,1,2.224-5.759C881.612,1274.789,881.536,1272.725,881.581,1270.673Z"/><path class="k" d="M874.57,1273.347a7.117,7.117,0,0,1,.817-2.446c.8-1.45,1.98-2.627,2.858-4.024a28.265,28.265,0,0,0,3.278-9.227v-4.856c-.406.976-.835,1.941-1.3,2.89-1.29,2.647-2.91,5.087-4.369,7.633C874.213,1266.19,872.6,1270.277,874.57,1273.347Z"/><path class="k" d="M860.748,1278.027c-.92,2.011-1.964,4.121-2.006,6.337a12.458,12.458,0,0,0,2.006,6.225,12.457,12.457,0,0,0,2.005-6.225C862.712,1282.148,861.667,1280.038,860.748,1278.027Z"/><path class="k" d="M861.366,1257.649a43.781,43.781,0,0,0,1.408,5.263,19.03,19.03,0,0,0,2.242,4.529,26.36,26.36,0,0,1,2.774,4.037,6.913,6.913,0,0,1,.53,1.85,7.261,7.261,0,0,0,.74-5.075,17.757,17.757,0,0,0-2.434-5.631c-.764-1.29-1.554-2.564-2.309-3.86a51.647,51.647,0,0,1-2.951-5.99Z"/><path class="k" d="M860.747,1251.278h.009l-.007-.018-.007.019Z"/><path class="k" d="M864.181,1275.217a24.774,24.774,0,0,0-2.81-5.709q-.037.582-.063,1.165c.045,2.052-.03,4.116.1,6.162a30.507,30.507,0,0,1,2.223,5.759A11.874,11.874,0,0,0,864.181,1275.217Z"/><path class="k" d="M860.086,1276.835c.132-2.046.056-4.11.1-6.162q-.026-.583-.063-1.165a24.814,24.814,0,0,0-2.81,5.709,11.889,11.889,0,0,0,.548,7.377A30.416,30.416,0,0,1,860.086,1276.835Z"/><path class="k" d="M853.176,1273.347a7.118,7.118,0,0,1,.817-2.446c.8-1.45,1.98-2.627,2.858-4.024a28.267,28.267,0,0,0,3.278-9.227v-4.856c-.406.976-.835,1.941-1.3,2.89-1.29,2.647-2.911,5.087-4.369,7.633C852.818,1266.19,851.206,1270.277,853.176,1273.347Z"/><path class="k" d="M860.129,1266.927v-4.855a21.482,21.482,0,0,1-3.287,6.736c-1.212,1.6-2.572,3.136-2.655,5.283a7.3,7.3,0,0,0,1.721,4.83,12.9,12.9,0,0,1,.228-3.46,14.223,14.223,0,0,1,1.752-4.281A25.768,25.768,0,0,0,860.129,1266.927Z"/><path class="k" d="M867.308,1274.091c-.083-2.147-1.443-3.682-2.655-5.283a21.525,21.525,0,0,1-3.287-6.736v4.855a25.837,25.837,0,0,0,2.241,4.253,14.2,14.2,0,0,1,1.752,4.281,12.859,12.859,0,0,1,.228,3.46A7.288,7.288,0,0,0,867.308,1274.091Z"/><path class="k" d="M857.609,1289.111a7.121,7.121,0,0,1-.817,2.445c-.8,1.451-1.98,2.628-2.858,4.025a28.256,28.256,0,0,0-3.278,9.227v4.855c.406-.976.835-1.941,1.3-2.89,1.29-2.647,2.911-5.087,4.369-7.633C857.967,1296.268,859.579,1292.181,857.609,1289.111Z"/><path class="k" d="M850.044,1271.881v12.535c.918-2.007,1.957-4.112,2-6.322A12.441,12.441,0,0,0,850.044,1271.881Z"/><path class="k" d="M853.471,1287.24a11.885,11.885,0,0,0-.548-7.376,30.434,30.434,0,0,1-2.224,5.758c-.132,2.047-.056,4.111-.1,6.162q.025.583.063,1.166A24.823,24.823,0,0,0,853.471,1287.24Z"/><path class="k" d="M852.9,1291.277a25.811,25.811,0,0,0-2.241,4.254v4.854a21.477,21.477,0,0,1,3.287-6.735c1.212-1.6,2.572-3.137,2.655-5.284a7.3,7.3,0,0,0-1.721-4.829,12.9,12.9,0,0,1-.228,3.46A14.215,14.215,0,0,1,852.9,1291.277Z"/><path class="k" d="M877.716,1299.14c1.645-2.872,3.257-6.959,1.287-10.029a7.119,7.119,0,0,1-.817,2.445c-.8,1.451-1.98,2.628-2.858,4.025a28.257,28.257,0,0,0-3.278,9.227v4.855c.407-.976.835-1.941,1.3-2.89C874.637,1304.126,876.258,1301.686,877.716,1299.14Z"/><path class="k" d="M865.553,1299.835c.764,1.291,1.554,2.564,2.309,3.86a51.658,51.658,0,0,1,2.951,5.99v-4.876a43.781,43.781,0,0,0-1.408-5.263,19.036,19.036,0,0,0-2.242-4.53,26.356,26.356,0,0,1-2.774-4.036,6.927,6.927,0,0,1-.53-1.85,7.253,7.253,0,0,0-.739,5.074A17.721,17.721,0,0,0,865.553,1299.835Z"/><path class="k" d="M871.43,1311.2l.007-.018h-.014Z"/><path class="k" d="M871.431,1271.869a12.456,12.456,0,0,0-2.005,6.225c.041,2.216,1.086,4.325,2.005,6.337.92-2.012,1.964-4.121,2.006-6.337A12.458,12.458,0,0,0,871.431,1271.869Z"/><path class="k" d="M870.769,1285.622a30.5,30.5,0,0,1-2.223-5.758,11.872,11.872,0,0,0-.548,7.376,24.783,24.783,0,0,0,2.81,5.71q.038-.582.063-1.166C870.826,1289.733,870.9,1287.669,870.769,1285.622Z"/><path class="k" d="M874.865,1287.24a11.886,11.886,0,0,0-.548-7.376,30.5,30.5,0,0,1-2.223,5.758c-.133,2.047-.057,4.111-.1,6.162q.025.583.063,1.166A24.823,24.823,0,0,0,874.865,1287.24Z"/><path class="k" d="M874.291,1291.277a25.806,25.806,0,0,0-2.241,4.254v4.854a21.477,21.477,0,0,1,3.287-6.735c1.212-1.6,2.572-3.137,2.655-5.284a7.3,7.3,0,0,0-1.721-4.829,12.9,12.9,0,0,1-.228,3.46A14.219,14.219,0,0,1,874.291,1291.277Z"/><path class="k" d="M870.813,1295.531a25.88,25.88,0,0,0-2.241-4.254,14.18,14.18,0,0,1-1.752-4.28,12.862,12.862,0,0,1-.228-3.46,7.286,7.286,0,0,0-1.721,4.829c.083,2.147,1.443,3.683,2.655,5.284a21.519,21.519,0,0,1,3.287,6.735Z"/><path class="k" d="M892.824,1311.2l.007-.018h-.014Z"/><path class="k" d="M892.207,1295.531a25.88,25.88,0,0,0-2.241-4.254,14.18,14.18,0,0,1-1.752-4.28,12.859,12.859,0,0,1-.228-3.46,7.285,7.285,0,0,0-1.721,4.829c.083,2.147,1.443,3.683,2.655,5.284a21.5,21.5,0,0,1,3.287,6.735Z"/><path class="k" d="M886.947,1299.835c.764,1.291,1.554,2.564,2.31,3.86a51.818,51.818,0,0,1,2.95,5.99v-4.876a43.781,43.781,0,0,0-1.408-5.263,19.068,19.068,0,0,0-2.241-4.53,26.288,26.288,0,0,1-2.775-4.036,6.925,6.925,0,0,1-.53-1.85,7.253,7.253,0,0,0-.739,5.074A17.721,17.721,0,0,0,886.947,1299.835Z"/><path class="k" d="M892.825,1271.869a12.467,12.467,0,0,0-2.005,6.225c.041,2.216,1.086,4.325,2.005,6.337.92-2.012,1.965-4.121,2.006-6.337A12.458,12.458,0,0,0,892.825,1271.869Z"/><path class="k" d="M899.11,1299.14c1.645-2.872,3.257-6.959,1.288-10.029a7.144,7.144,0,0,1-.818,2.445c-.8,1.451-1.98,2.628-2.858,4.025a28.259,28.259,0,0,0-3.278,9.227v4.855c.407-.976.835-1.941,1.3-2.89C896.032,1304.126,897.652,1301.686,899.11,1299.14Z"/><path class="k" d="M895.685,1291.277a25.885,25.885,0,0,0-2.241,4.254v4.854a21.5,21.5,0,0,1,3.287-6.735c1.212-1.6,2.572-3.137,2.655-5.284a7.3,7.3,0,0,0-1.721-4.829,12.9,12.9,0,0,1-.228,3.46A14.19,14.19,0,0,1,895.685,1291.277Z"/><path class="k" d="M896.259,1287.24a11.878,11.878,0,0,0-.548-7.376,30.5,30.5,0,0,1-2.223,5.758c-.133,2.047-.057,4.111-.1,6.162q.026.583.063,1.166A24.781,24.781,0,0,0,896.259,1287.24Z"/><path class="k" d="M892.163,1285.622a30.5,30.5,0,0,1-2.223-5.758,11.879,11.879,0,0,0-.548,7.376,24.781,24.781,0,0,0,2.81,5.71q.037-.582.063-1.166C892.22,1289.733,892.3,1287.669,892.163,1285.622Z"/><path class="k" d="M917.079,1291.277a25.88,25.88,0,0,0-2.241,4.254v4.854a21.5,21.5,0,0,1,3.287-6.735c1.212-1.6,2.572-3.137,2.655-5.284a7.286,7.286,0,0,0-1.721-4.829,12.9,12.9,0,0,1-.228,3.46A14.19,14.19,0,0,1,917.079,1291.277Z"/><path class="k" d="M914.22,1271.869a12.458,12.458,0,0,0-2.006,6.225c.041,2.216,1.086,4.325,2.006,6.337.919-2.012,1.964-4.121,2.005-6.337A12.466,12.466,0,0,0,914.22,1271.869Z"/><path class="k" d="M917.653,1287.24a11.878,11.878,0,0,0-.548-7.376,30.5,30.5,0,0,1-2.223,5.758c-.133,2.047-.057,4.111-.1,6.162q.025.583.063,1.166A24.783,24.783,0,0,0,917.653,1287.24Z"/><path class="k" d="M913.6,1295.531a25.885,25.885,0,0,0-2.241-4.254,14.182,14.182,0,0,1-1.752-4.28,12.9,12.9,0,0,1-.228-3.46,7.3,7.3,0,0,0-1.721,4.829c.083,2.147,1.443,3.683,2.655,5.284a21.5,21.5,0,0,1,3.287,6.735Z"/><path class="k" d="M913.557,1285.622a30.5,30.5,0,0,1-2.223-5.758,11.879,11.879,0,0,0-.548,7.376,24.783,24.783,0,0,0,2.81,5.71q.037-.582.063-1.166C913.614,1289.733,913.69,1287.669,913.557,1285.622Z"/><path class="k" d="M920.5,1299.14c1.645-2.872,3.257-6.959,1.288-10.029a7.144,7.144,0,0,1-.818,2.445c-.8,1.451-1.98,2.628-2.857,4.025a28.235,28.235,0,0,0-3.279,9.227v4.855c.407-.976.835-1.941,1.3-2.89C917.426,1304.126,919.046,1301.686,920.5,1299.14Z"/><path class="k" d="M908.341,1299.835c.764,1.291,1.555,2.564,2.31,3.86a51.828,51.828,0,0,1,2.95,5.99v-4.876a43.793,43.793,0,0,0-1.408-5.263,19.07,19.07,0,0,0-2.241-4.53,26.288,26.288,0,0,1-2.775-4.036,6.925,6.925,0,0,1-.53-1.85,7.253,7.253,0,0,0-.739,5.074A17.72,17.72,0,0,0,908.341,1299.835Z"/><path class="k" d="M914.218,1311.2l.007-.018h-.014Z"/><path class="k" d="M939.047,1287.24a11.872,11.872,0,0,0-.548-7.376,30.505,30.505,0,0,1-2.223,5.758c-.132,2.047-.057,4.111-.1,6.162q.025.583.063,1.166A24.783,24.783,0,0,0,939.047,1287.24Z"/><path class="k" d="M941.9,1299.14c1.645-2.872,3.257-6.959,1.288-10.029a7.141,7.141,0,0,1-.818,2.445c-.8,1.451-1.98,2.628-2.857,4.025a28.26,28.26,0,0,0-3.279,9.227v4.855c.407-.976.836-1.941,1.3-2.89C938.82,1304.126,940.44,1301.686,941.9,1299.14Z"/><path class="k" d="M938.473,1291.277a25.885,25.885,0,0,0-2.241,4.254v4.854a21.519,21.519,0,0,1,3.287-6.735c1.212-1.6,2.572-3.137,2.655-5.284a7.286,7.286,0,0,0-1.721-4.829,12.862,12.862,0,0,1-.228,3.46A14.192,14.192,0,0,1,938.473,1291.277Z"/><path class="k" d="M934.951,1285.622a30.5,30.5,0,0,1-2.223-5.758,11.886,11.886,0,0,0-.548,7.376,24.823,24.823,0,0,0,2.81,5.71q.038-.582.063-1.166C935.008,1289.733,935.084,1287.669,934.951,1285.622Z"/><path class="k" d="M929.735,1299.835c.764,1.291,1.555,2.564,2.31,3.86a51.809,51.809,0,0,1,2.95,5.99v-4.876a43.793,43.793,0,0,0-1.408-5.263,19.028,19.028,0,0,0-2.241-4.53,26.292,26.292,0,0,1-2.775-4.036,6.963,6.963,0,0,1-.53-1.85,7.253,7.253,0,0,0-.739,5.074A17.744,17.744,0,0,0,929.735,1299.835Z"/><path class="k" d="M934.995,1295.531a25.811,25.811,0,0,0-2.241-4.254A14.18,14.18,0,0,1,931,1287a12.9,12.9,0,0,1-.228-3.46,7.3,7.3,0,0,0-1.721,4.829c.083,2.147,1.443,3.683,2.655,5.284a21.477,21.477,0,0,1,3.287,6.735Z"/><path class="k" d="M935.614,1271.869a12.458,12.458,0,0,0-2.006,6.225c.042,2.216,1.086,4.325,2.006,6.337.919-2.012,1.964-4.121,2.005-6.337A12.457,12.457,0,0,0,935.614,1271.869Z"/><path class="k" d="M935.612,1311.2l.007-.018H935.6Z"/><path class="k" d="M956.389,1295.531a25.806,25.806,0,0,0-2.241-4.254A14.205,14.205,0,0,1,952.4,1287a12.9,12.9,0,0,1-.228-3.46,7.29,7.29,0,0,0-1.72,4.829c.082,2.147,1.442,3.683,2.654,5.284a21.476,21.476,0,0,1,3.287,6.735Z"/><path class="k" d="M951.129,1299.835c.764,1.291,1.555,2.564,2.31,3.86a51.818,51.818,0,0,1,2.95,5.99v-4.876a43.781,43.781,0,0,0-1.408-5.263,19.031,19.031,0,0,0-2.241-4.53,26.213,26.213,0,0,1-2.774-4.036,6.927,6.927,0,0,1-.531-1.85,7.253,7.253,0,0,0-.739,5.074A17.743,17.743,0,0,0,951.129,1299.835Z"/><path class="k" d="M959.867,1291.277a25.885,25.885,0,0,0-2.241,4.254v4.854a21.519,21.519,0,0,1,3.287-6.735c1.212-1.6,2.572-3.137,2.655-5.284a7.286,7.286,0,0,0-1.721-4.829,12.859,12.859,0,0,1-.228,3.46A14.192,14.192,0,0,1,959.867,1291.277Z"/><path class="k" d="M957.008,1271.869a12.458,12.458,0,0,0-2.006,6.225c.042,2.216,1.086,4.325,2.006,6.337.919-2.012,1.964-4.121,2.005-6.337A12.457,12.457,0,0,0,957.008,1271.869Z"/><path class="k" d="M960.441,1287.24a11.871,11.871,0,0,0-.548-7.376,30.5,30.5,0,0,1-2.223,5.758c-.132,2.047-.057,4.111-.1,6.162q.026.583.063,1.166A24.783,24.783,0,0,0,960.441,1287.24Z"/><path class="k" d="M956.346,1285.622a30.434,30.434,0,0,1-2.224-5.758,11.886,11.886,0,0,0-.548,7.376,24.828,24.828,0,0,0,2.81,5.71q.038-.582.063-1.166C956.4,1289.733,956.478,1287.669,956.346,1285.622Z"/><path class="k" d="M957.006,1311.2l.008-.018H957Z"/><path class="k" d="M963.292,1299.14c1.645-2.872,3.257-6.959,1.288-10.029a7.144,7.144,0,0,1-.818,2.445c-.8,1.451-1.98,2.628-2.857,4.025a28.259,28.259,0,0,0-3.279,9.227v4.855c.407-.976.836-1.941,1.3-2.89C960.214,1304.126,961.834,1301.686,963.292,1299.14Z"/><path class="k" d="M978.408,1311.18h-.015l.007.018Z"/><path class="k" d="M974.134,1295.016a26.217,26.217,0,0,1-2.774-4.036,6.929,6.929,0,0,1-.531-1.85,7.258,7.258,0,0,0-.739,5.074,17.742,17.742,0,0,0,2.433,5.631c.764,1.291,1.555,2.564,2.31,3.86a51.828,51.828,0,0,1,2.95,5.99v-4.876a43.793,43.793,0,0,0-1.408-5.263A19.031,19.031,0,0,0,974.134,1295.016Z"/><path class="k" d="M976.4,1278.094c.042,2.216,1.087,4.325,2.006,6.337l.006-.015v-12.535l-.006-.012A12.458,12.458,0,0,0,976.4,1278.094Z"/><path class="k" d="M973.79,1287a12.9,12.9,0,0,1-.228-3.46,7.29,7.29,0,0,0-1.72,4.829c.083,2.147,1.442,3.683,2.654,5.284a21.476,21.476,0,0,1,3.287,6.735v-4.854a25.806,25.806,0,0,0-2.241-4.254A14.208,14.208,0,0,1,973.79,1287Z"/><path class="k" d="M974.968,1287.24a24.823,24.823,0,0,0,2.81,5.71q.037-.582.063-1.166c-.045-2.051.031-4.115-.1-6.162a30.438,30.438,0,0,1-2.224-5.758A11.886,11.886,0,0,0,974.968,1287.24Z"/><path class="k" d="M967.727,1208.489l-.007-.018-.008.019h.015Z"/><path class="k" d="M960.963,1228.113c.8-1.45,1.981-2.627,2.858-4.024a28.268,28.268,0,0,0,3.279-9.227v-4.856c-.407.976-.836,1.941-1.3,2.89-1.29,2.647-2.91,5.087-4.368,7.633-1.645,2.872-3.258,6.96-1.288,10.029A7.163,7.163,0,0,1,960.963,1228.113Z"/><path class="k" d="M964.284,1232.429a11.878,11.878,0,0,0,.549,7.376,30.5,30.5,0,0,1,2.223-5.758c.132-2.046.057-4.11.1-6.162-.018-.389-.038-.777-.063-1.166A24.851,24.851,0,0,0,964.284,1232.429Z"/><path class="k" d="M972.33,1232.673a12.9,12.9,0,0,1,.228,3.459,7.288,7.288,0,0,0,1.72-4.829c-.083-2.147-1.442-3.682-2.655-5.283a21.5,21.5,0,0,1-3.286-6.736v4.855a25.727,25.727,0,0,0,2.241,4.253A14.227,14.227,0,0,1,972.33,1232.673Z"/><path class="k" d="M970.6,1239.805a11.886,11.886,0,0,0,.548-7.376,24.845,24.845,0,0,0-2.81-5.71c-.026.389-.046.777-.063,1.166.045,2.052-.031,4.116.1,6.162A30.507,30.507,0,0,1,970.6,1239.805Z"/><path class="k" d="M964.858,1228.392a25.875,25.875,0,0,0,2.242-4.253v-4.855a21.525,21.525,0,0,1-3.287,6.736c-1.212,1.6-2.572,3.136-2.655,5.283a7.283,7.283,0,0,0,1.721,4.829,12.855,12.855,0,0,1,.228-3.459A14.212,14.212,0,0,1,964.858,1228.392Z"/><path class="k" d="M965.713,1241.576a12.454,12.454,0,0,0,2.005,6.224,12.445,12.445,0,0,0,2.005-6.224c-.041-2.217-1.086-4.326-2.005-6.337C966.8,1237.25,965.754,1239.36,965.713,1241.576Z"/><path class="k" d="M971.986,1224.653a26.338,26.338,0,0,1,2.774,4.036,6.939,6.939,0,0,1,.531,1.85,7.258,7.258,0,0,0,.739-5.074,17.776,17.776,0,0,0-2.433-5.631c-.764-1.29-1.555-2.564-2.31-3.86a51.66,51.66,0,0,1-2.95-5.99v4.877a43.607,43.607,0,0,0,1.408,5.263A19.042,19.042,0,0,0,971.986,1224.653Z"/><path class="k" d="M942.89,1232.429a11.886,11.886,0,0,0,.548,7.376,30.507,30.507,0,0,1,2.224-5.758c.132-2.046.057-4.11.1-6.162-.017-.389-.037-.777-.063-1.166A24.884,24.884,0,0,0,942.89,1232.429Z"/><path class="k" d="M944.319,1241.576a12.454,12.454,0,0,0,2.005,6.224,12.443,12.443,0,0,0,2.005-6.224c-.041-2.217-1.086-4.326-2.005-6.337C945.405,1237.25,944.36,1239.36,944.319,1241.576Z"/><path class="k" d="M939.569,1228.113c.8-1.45,1.981-2.627,2.858-4.024a28.269,28.269,0,0,0,3.279-9.227v-4.856c-.407.976-.836,1.941-1.3,2.89-1.29,2.647-2.91,5.087-4.368,7.633-1.645,2.872-3.258,6.96-1.288,10.029A7.164,7.164,0,0,1,939.569,1228.113Z"/><path class="k" d="M946.333,1208.489l-.008-.018-.007.019h.015Z"/><path class="k" d="M949.21,1239.805a11.886,11.886,0,0,0,.548-7.376,24.845,24.845,0,0,0-2.81-5.71c-.026.389-.046.777-.063,1.166.044,2.052-.031,4.116.1,6.162A30.507,30.507,0,0,1,949.21,1239.805Z"/><path class="k" d="M943.464,1228.392a25.875,25.875,0,0,0,2.242-4.253v-4.855a21.525,21.525,0,0,1-3.287,6.736c-1.212,1.6-2.572,3.136-2.655,5.283a7.288,7.288,0,0,0,1.72,4.829,12.9,12.9,0,0,1,.229-3.459A14.212,14.212,0,0,1,943.464,1228.392Z"/><path class="k" d="M950.936,1232.673a12.9,12.9,0,0,1,.228,3.459,7.287,7.287,0,0,0,1.72-4.829c-.083-2.147-1.442-3.682-2.655-5.283a21.5,21.5,0,0,1-3.286-6.736v4.855a25.717,25.717,0,0,0,2.241,4.253A14.25,14.25,0,0,1,950.936,1232.673Z"/><path class="k" d="M950.592,1224.653a26.334,26.334,0,0,1,2.774,4.036,6.939,6.939,0,0,1,.531,1.85,7.258,7.258,0,0,0,.739-5.074,17.776,17.776,0,0,0-2.433-5.631c-.764-1.29-1.555-2.564-2.31-3.86a51.65,51.65,0,0,1-2.95-5.99v4.877a43.6,43.6,0,0,0,1.408,5.263A19.041,19.041,0,0,0,950.592,1224.653Z"/><path class="k" d="M927.816,1239.805a11.886,11.886,0,0,0,.548-7.376,24.851,24.851,0,0,0-2.811-5.71c-.025.389-.045.777-.062,1.166.044,2.052-.031,4.116.1,6.162A30.5,30.5,0,0,1,927.816,1239.805Z"/><path class="k" d="M922.925,1241.576a12.454,12.454,0,0,0,2.005,6.224,12.454,12.454,0,0,0,2.005-6.224c-.041-2.217-1.086-4.326-2.005-6.337C924.011,1237.25,922.966,1239.36,922.925,1241.576Z"/><path class="k" d="M922.07,1228.392a25.8,25.8,0,0,0,2.241-4.253v-4.855a21.5,21.5,0,0,1-3.286,6.736c-1.213,1.6-2.572,3.136-2.655,5.283a7.288,7.288,0,0,0,1.72,4.829,12.939,12.939,0,0,1,.228-3.459A14.24,14.24,0,0,1,922.07,1228.392Z"/><path class="k" d="M929.2,1224.653a26.329,26.329,0,0,1,2.774,4.036,6.9,6.9,0,0,1,.53,1.85,7.253,7.253,0,0,0,.74-5.074,17.777,17.777,0,0,0-2.433-5.631c-.764-1.29-1.555-2.564-2.31-3.86a51.64,51.64,0,0,1-2.95-5.99v4.877a43.415,43.415,0,0,0,1.408,5.263A19,19,0,0,0,929.2,1224.653Z"/><path class="k" d="M929.541,1232.673a12.9,12.9,0,0,1,.229,3.459,7.288,7.288,0,0,0,1.72-4.829c-.083-2.147-1.443-3.682-2.655-5.283a21.5,21.5,0,0,1-3.286-6.736v4.855a25.722,25.722,0,0,0,2.241,4.253A14.223,14.223,0,0,1,929.541,1232.673Z"/><path class="k" d="M924.939,1208.489l-.008-.018-.007.019h.015Z"/><path class="k" d="M918.175,1228.113c.8-1.45,1.981-2.627,2.858-4.024a28.245,28.245,0,0,0,3.278-9.227v-4.856c-.406.976-.835,1.941-1.3,2.89-1.29,2.647-2.91,5.087-4.368,7.633-1.645,2.872-3.258,6.96-1.288,10.029A7.142,7.142,0,0,1,918.175,1228.113Z"/><path class="k" d="M921.5,1232.429a11.886,11.886,0,0,0,.548,7.376,30.5,30.5,0,0,1,2.224-5.758c.132-2.046.057-4.11.1-6.162-.017-.389-.037-.777-.063-1.166A24.847,24.847,0,0,0,921.5,1232.429Z"/><path class="k" d="M906.421,1239.805a11.879,11.879,0,0,0,.549-7.376,24.848,24.848,0,0,0-2.811-5.71c-.025.389-.045.777-.063,1.166.045,2.052-.03,4.116.1,6.162A30.433,30.433,0,0,1,906.421,1239.805Z"/><path class="k" d="M900.1,1232.429a11.885,11.885,0,0,0,.548,7.376,30.5,30.5,0,0,1,2.224-5.758c.132-2.046.056-4.11.1-6.162-.017-.389-.037-.777-.063-1.166A24.845,24.845,0,0,0,900.1,1232.429Z"/><path class="k" d="M903.544,1208.489l-.007-.018-.007.019h.014Z"/><path class="k" d="M896.781,1228.113c.8-1.45,1.98-2.627,2.858-4.024a28.243,28.243,0,0,0,3.278-9.227v-4.856c-.406.976-.835,1.941-1.3,2.89-1.29,2.647-2.91,5.087-4.368,7.633-1.645,2.872-3.258,6.96-1.288,10.029A7.142,7.142,0,0,1,896.781,1228.113Z"/><path class="k" d="M907.8,1224.653a26.329,26.329,0,0,1,2.774,4.036,6.934,6.934,0,0,1,.53,1.85,7.253,7.253,0,0,0,.74-5.074,17.776,17.776,0,0,0-2.433-5.631c-.765-1.29-1.555-2.564-2.31-3.86a51.824,51.824,0,0,1-2.951-5.99v4.877a43.611,43.611,0,0,0,1.409,5.263A19,19,0,0,0,907.8,1224.653Z"/><path class="k" d="M908.147,1232.673a12.857,12.857,0,0,1,.228,3.459,7.283,7.283,0,0,0,1.721-4.829c-.083-2.147-1.443-3.682-2.655-5.283a21.527,21.527,0,0,1-3.287-6.736v4.855a25.805,25.805,0,0,0,2.242,4.253A14.223,14.223,0,0,1,908.147,1232.673Z"/><path class="k" d="M901.53,1241.576a12.454,12.454,0,0,0,2.006,6.224,12.454,12.454,0,0,0,2.005-6.224c-.041-2.217-1.086-4.326-2.005-6.337C902.617,1237.25,901.572,1239.36,901.53,1241.576Z"/><path class="k" d="M900.676,1228.392a25.8,25.8,0,0,0,2.241-4.253v-4.855a21.5,21.5,0,0,1-3.286,6.736c-1.213,1.6-2.572,3.136-2.655,5.283a7.287,7.287,0,0,0,1.72,4.829,12.9,12.9,0,0,1,.228-3.459A14.238,14.238,0,0,1,900.676,1228.392Z"/><path class="k" d="M878.708,1232.429a11.886,11.886,0,0,0,.548,7.376,30.44,30.44,0,0,1,2.224-5.758c.132-2.046.056-4.11.1-6.162-.017-.389-.038-.777-.063-1.166A24.845,24.845,0,0,0,878.708,1232.429Z"/><path class="k" d="M882.15,1208.489l-.007-.018-.007.019h.014Z"/><path class="k" d="M886.753,1232.673a12.857,12.857,0,0,1,.228,3.459,7.284,7.284,0,0,0,1.721-4.829c-.083-2.147-1.443-3.682-2.655-5.283a21.525,21.525,0,0,1-3.287-6.736v4.855a25.87,25.87,0,0,0,2.241,4.253A14.2,14.2,0,0,1,886.753,1232.673Z"/><path class="k" d="M885.027,1239.805a11.871,11.871,0,0,0,.548-7.376,24.805,24.805,0,0,0-2.81-5.71c-.025.389-.045.777-.063,1.166.045,2.052-.03,4.116.1,6.162A30.433,30.433,0,0,1,885.027,1239.805Z"/><path class="k" d="M880.136,1241.576a12.455,12.455,0,0,0,2.006,6.224,12.454,12.454,0,0,0,2-6.224c-.041-2.217-1.086-4.326-2-6.337C881.223,1237.25,880.178,1239.36,880.136,1241.576Z"/><path class="k" d="M886.41,1224.653a26.4,26.4,0,0,1,2.774,4.036,6.938,6.938,0,0,1,.53,1.85,7.258,7.258,0,0,0,.74-5.074,17.776,17.776,0,0,0-2.433-5.631c-.765-1.29-1.555-2.564-2.31-3.86a51.814,51.814,0,0,1-2.951-5.99v4.877a43.777,43.777,0,0,0,1.408,5.263A19.045,19.045,0,0,0,886.41,1224.653Z"/><path class="k" d="M879.282,1228.392a25.8,25.8,0,0,0,2.241-4.253v-4.855a21.483,21.483,0,0,1-3.287,6.736c-1.212,1.6-2.571,3.136-2.654,5.283a7.288,7.288,0,0,0,1.72,4.829,12.9,12.9,0,0,1,.228-3.459A14.215,14.215,0,0,1,879.282,1228.392Z"/><path class="k" d="M875.387,1228.113c.8-1.45,1.98-2.627,2.858-4.024a28.267,28.267,0,0,0,3.278-9.227v-4.856c-.406.976-.835,1.941-1.3,2.89-1.29,2.647-2.91,5.087-4.369,7.633-1.644,2.872-3.257,6.96-1.287,10.029A7.119,7.119,0,0,1,875.387,1228.113Z"/><path class="k" d="M857.314,1232.429a11.886,11.886,0,0,0,.548,7.376,30.432,30.432,0,0,1,2.224-5.758c.132-2.046.056-4.11.1-6.162-.017-.389-.038-.777-.063-1.166A24.845,24.845,0,0,0,857.314,1232.429Z"/><path class="k" d="M860.756,1208.489l-.007-.018-.007.019h.014Z"/><path class="k" d="M863.633,1239.805a11.871,11.871,0,0,0,.548-7.376,24.805,24.805,0,0,0-2.81-5.71c-.025.389-.046.777-.063,1.166.045,2.052-.03,4.116.1,6.162A30.5,30.5,0,0,1,863.633,1239.805Z"/><path class="k" d="M865.359,1232.673a12.855,12.855,0,0,1,.228,3.459,7.283,7.283,0,0,0,1.721-4.829c-.083-2.147-1.443-3.682-2.655-5.283a21.525,21.525,0,0,1-3.287-6.736v4.855a25.87,25.87,0,0,0,2.241,4.253A14.2,14.2,0,0,1,865.359,1232.673Z"/><path class="k" d="M853.993,1228.113c.8-1.45,1.98-2.627,2.858-4.024a28.269,28.269,0,0,0,3.278-9.227v-4.856c-.406.976-.835,1.941-1.3,2.89-1.29,2.647-2.911,5.087-4.369,7.633-1.645,2.872-3.257,6.96-1.287,10.029A7.12,7.12,0,0,1,853.993,1228.113Z"/><path class="k" d="M858.742,1241.576a12.455,12.455,0,0,0,2.006,6.224,12.454,12.454,0,0,0,2.005-6.224c-.041-2.217-1.086-4.326-2.005-6.337C859.828,1237.25,858.784,1239.36,858.742,1241.576Z"/><path class="k" d="M865.016,1224.653a26.4,26.4,0,0,1,2.774,4.036,6.936,6.936,0,0,1,.53,1.85,7.259,7.259,0,0,0,.74-5.074,17.756,17.756,0,0,0-2.434-5.631c-.764-1.29-1.554-2.564-2.309-3.86a51.647,51.647,0,0,1-2.951-5.99v4.877a43.777,43.777,0,0,0,1.408,5.263A19.045,19.045,0,0,0,865.016,1224.653Z"/><path class="k" d="M860.129,1224.139v-4.855a21.482,21.482,0,0,1-3.287,6.736c-1.212,1.6-2.572,3.136-2.655,5.283a7.293,7.293,0,0,0,1.721,4.829,12.9,12.9,0,0,1,.228-3.459,14.215,14.215,0,0,1,1.752-4.281A25.8,25.8,0,0,0,860.129,1224.139Z"/><path class="k" d="M856.792,1334.344c-.069.126-.142.248-.217.37H858.5a5.808,5.808,0,0,0-.893-2.815A7.115,7.115,0,0,1,856.792,1334.344Z"/><path class="k" d="M854.877,1326.325a12.9,12.9,0,0,1-.228,3.46,14.206,14.206,0,0,1-1.752,4.28c-.126.217-.255.433-.384.649h2.722a6.627,6.627,0,0,0,1.363-3.56A7.3,7.3,0,0,0,854.877,1326.325Z"/><path class="k" d="M852.923,1322.652a30.467,30.467,0,0,1-2.224,5.759c-.132,2.046-.056,4.11-.1,6.161,0,.047.005.095.007.142h.643a18.386,18.386,0,0,0,2.223-4.686A11.886,11.886,0,0,0,852.923,1322.652Z"/><path class="k" d="M850.044,1314.669V1327.2c.918-2.007,1.957-4.111,2-6.322A12.444,12.444,0,0,0,850.044,1314.669Z"/><path class="k" d="M876.271,1326.325a12.9,12.9,0,0,1-.228,3.46,14.209,14.209,0,0,1-1.752,4.28c-.126.217-.255.433-.383.649h2.721a6.628,6.628,0,0,0,1.363-3.56A7.3,7.3,0,0,0,876.271,1326.325Z"/><path class="k" d="M874.317,1322.652a30.534,30.534,0,0,1-2.223,5.759c-.133,2.046-.057,4.11-.1,6.161,0,.047.005.095.007.142h.643a18.386,18.386,0,0,0,2.223-4.686A11.886,11.886,0,0,0,874.317,1322.652Z"/><path class="k" d="M878.186,1334.344c-.069.126-.142.248-.216.37H879.9A5.807,5.807,0,0,0,879,1331.9,7.112,7.112,0,0,1,878.186,1334.344Z"/><path class="k" d="M866.82,1329.785a12.863,12.863,0,0,1-.228-3.46,7.286,7.286,0,0,0-1.721,4.829,6.619,6.619,0,0,0,1.363,3.56h2.721c-.128-.216-.257-.432-.383-.649A14.181,14.181,0,0,1,866.82,1329.785Z"/><path class="k" d="M863.859,1331.918a6.337,6.337,0,0,0-.866,2.8h1.9a7.99,7.99,0,0,1-.505-.946A6.925,6.925,0,0,1,863.859,1331.918Z"/><path class="k" d="M870.769,1328.411a30.508,30.508,0,0,1-2.223-5.759,11.872,11.872,0,0,0-.548,7.376,18.386,18.386,0,0,0,2.223,4.686h.643c0-.047.005-.095.007-.142C870.826,1332.521,870.9,1330.457,870.769,1328.411Z"/><path class="k" d="M869.426,1320.882c.041,2.216,1.086,4.326,2.005,6.337.92-2.011,1.964-4.121,2.006-6.337a12.459,12.459,0,0,0-2.006-6.225A12.456,12.456,0,0,0,869.426,1320.882Z"/><path class="k" d="M888.214,1329.785a12.86,12.86,0,0,1-.228-3.46,7.285,7.285,0,0,0-1.721,4.829,6.627,6.627,0,0,0,1.363,3.56h2.721c-.128-.216-.257-.432-.383-.649A14.181,14.181,0,0,1,888.214,1329.785Z"/><path class="k" d="M897.665,1326.325a12.9,12.9,0,0,1-.228,3.46,14.181,14.181,0,0,1-1.752,4.28c-.126.217-.255.433-.383.649h2.721a6.627,6.627,0,0,0,1.363-3.56A7.3,7.3,0,0,0,897.665,1326.325Z"/><path class="k" d="M885.253,1331.918a6.337,6.337,0,0,0-.866,2.8h1.9a7.981,7.981,0,0,1-.505-.946A6.923,6.923,0,0,1,885.253,1331.918Z"/><path class="k" d="M899.58,1334.344c-.069.126-.142.248-.216.37h1.926a5.817,5.817,0,0,0-.892-2.815A7.137,7.137,0,0,1,899.58,1334.344Z"/><path class="k" d="M895.711,1322.652a30.529,30.529,0,0,1-2.223,5.759c-.133,2.046-.057,4.11-.1,6.161,0,.047.005.095.007.142h.643a18.386,18.386,0,0,0,2.223-4.686A11.879,11.879,0,0,0,895.711,1322.652Z"/><path class="k" d="M890.82,1320.882c.041,2.216,1.086,4.326,2.005,6.337.92-2.011,1.965-4.121,2.006-6.337a12.459,12.459,0,0,0-2.006-6.225A12.467,12.467,0,0,0,890.82,1320.882Z"/><path class="k" d="M892.163,1328.411a30.5,30.5,0,0,1-2.223-5.759,11.879,11.879,0,0,0-.548,7.376,18.386,18.386,0,0,0,2.223,4.686h.643c0-.047.005-.095.007-.142C892.22,1332.521,892.3,1330.457,892.163,1328.411Z"/><path class="k" d="M917.1,1322.652a30.533,30.533,0,0,1-2.223,5.759c-.133,2.046-.057,4.11-.1,6.161,0,.047,0,.095.007.142h.643a18.386,18.386,0,0,0,2.223-4.686A11.879,11.879,0,0,0,917.1,1322.652Z"/><path class="k" d="M920.974,1334.344c-.069.126-.142.248-.216.37h1.926a5.807,5.807,0,0,0-.892-2.815A7.137,7.137,0,0,1,920.974,1334.344Z"/><path class="k" d="M913.557,1328.411a30.508,30.508,0,0,1-2.223-5.759,11.879,11.879,0,0,0-.548,7.376,18.386,18.386,0,0,0,2.223,4.686h.643c0-.047.005-.095.007-.142C913.614,1332.521,913.69,1330.457,913.557,1328.411Z"/><path class="k" d="M919.059,1326.325a12.9,12.9,0,0,1-.228,3.46,14.181,14.181,0,0,1-1.752,4.28c-.126.217-.255.433-.383.649h2.721a6.627,6.627,0,0,0,1.363-3.56A7.286,7.286,0,0,0,919.059,1326.325Z"/><path class="k" d="M906.647,1331.918a6.337,6.337,0,0,0-.866,2.8h1.9a7.981,7.981,0,0,1-.505-.946A6.923,6.923,0,0,1,906.647,1331.918Z"/><path class="k" d="M912.214,1320.882c.041,2.216,1.086,4.326,2.006,6.337.919-2.011,1.964-4.121,2.005-6.337a12.466,12.466,0,0,0-2.005-6.225A12.459,12.459,0,0,0,912.214,1320.882Z"/><path class="k" d="M909.608,1329.785a12.9,12.9,0,0,1-.228-3.46,7.3,7.3,0,0,0-1.721,4.829,6.628,6.628,0,0,0,1.363,3.56h2.721c-.128-.216-.257-.432-.383-.649A14.182,14.182,0,0,1,909.608,1329.785Z"/><path class="k" d="M934.951,1328.411a30.508,30.508,0,0,1-2.223-5.759,11.886,11.886,0,0,0-.548,7.376,18.386,18.386,0,0,0,2.223,4.686h.643c0-.047.005-.095.007-.142C935.008,1332.521,935.084,1330.457,934.951,1328.411Z"/><path class="k" d="M938.5,1322.652a30.538,30.538,0,0,1-2.223,5.759c-.132,2.046-.057,4.11-.1,6.161,0,.047.005.095.007.142h.643a18.384,18.384,0,0,0,2.223-4.686A11.872,11.872,0,0,0,938.5,1322.652Z"/><path class="k" d="M933.608,1320.882c.042,2.216,1.086,4.326,2.006,6.337.919-2.011,1.964-4.121,2.005-6.337a12.458,12.458,0,0,0-2.005-6.225A12.458,12.458,0,0,0,933.608,1320.882Z"/><path class="k" d="M928.041,1331.918a6.337,6.337,0,0,0-.866,2.8h1.9a7.99,7.99,0,0,1-.505-.946A6.962,6.962,0,0,1,928.041,1331.918Z"/><path class="k" d="M931,1329.785a12.9,12.9,0,0,1-.228-3.46,7.3,7.3,0,0,0-1.721,4.829,6.627,6.627,0,0,0,1.363,3.56h2.722c-.129-.216-.258-.432-.384-.649A14.181,14.181,0,0,1,931,1329.785Z"/><path class="k" d="M942.368,1334.344c-.069.126-.142.248-.216.37h1.926a5.807,5.807,0,0,0-.892-2.815A7.134,7.134,0,0,1,942.368,1334.344Z"/><path class="k" d="M940.453,1326.325a12.863,12.863,0,0,1-.228,3.46,14.182,14.182,0,0,1-1.752,4.28q-.189.326-.383.649h2.721a6.619,6.619,0,0,0,1.363-3.56A7.286,7.286,0,0,0,940.453,1326.325Z"/><path class="k" d="M949.435,1331.918a6.337,6.337,0,0,0-.866,2.8h1.9a7.843,7.843,0,0,1-.5-.946A6.926,6.926,0,0,1,949.435,1331.918Z"/><path class="k" d="M956.346,1328.411a30.441,30.441,0,0,1-2.224-5.759,11.886,11.886,0,0,0-.548,7.376,18.388,18.388,0,0,0,2.223,4.686h.643c0-.047.005-.095.007-.142C956.4,1332.521,956.478,1330.457,956.346,1328.411Z"/><path class="k" d="M959.893,1322.652a30.534,30.534,0,0,1-2.223,5.759c-.132,2.046-.057,4.11-.1,6.161,0,.047.005.095.007.142h.643a18.351,18.351,0,0,0,2.223-4.686A11.872,11.872,0,0,0,959.893,1322.652Z"/><path class="k" d="M955,1320.882c.042,2.216,1.086,4.326,2.006,6.337.919-2.011,1.964-4.121,2.005-6.337a12.457,12.457,0,0,0-2.005-6.225A12.458,12.458,0,0,0,955,1320.882Z"/><path class="k" d="M952.4,1329.785a12.9,12.9,0,0,1-.228-3.46,7.29,7.29,0,0,0-1.72,4.829,6.618,6.618,0,0,0,1.362,3.56h2.722c-.129-.216-.258-.432-.384-.649A14.206,14.206,0,0,1,952.4,1329.785Z"/><path class="k" d="M963.762,1334.344c-.069.126-.142.248-.216.37h1.926a5.806,5.806,0,0,0-.892-2.815A7.137,7.137,0,0,1,963.762,1334.344Z"/><path class="k" d="M961.847,1326.325a12.86,12.86,0,0,1-.228,3.46,14.182,14.182,0,0,1-1.752,4.28q-.189.326-.383.649h2.721a6.619,6.619,0,0,0,1.363-3.56A7.286,7.286,0,0,0,961.847,1326.325Z"/><path class="k" d="M976.4,1320.882c.042,2.216,1.087,4.326,2.006,6.337l.006-.015v-12.535l-.006-.012A12.459,12.459,0,0,0,976.4,1320.882Z"/><path class="k" d="M973.79,1329.785a12.9,12.9,0,0,1-.228-3.46,7.29,7.29,0,0,0-1.72,4.829,6.611,6.611,0,0,0,1.363,3.56h2.721c-.129-.216-.258-.432-.384-.649A14.209,14.209,0,0,1,973.79,1329.785Z"/><path class="k" d="M970.829,1331.918a6.337,6.337,0,0,0-.866,2.8h1.9a7.835,7.835,0,0,1-.5-.946A6.928,6.928,0,0,1,970.829,1331.918Z"/><path class="k" d="M977.74,1328.411a30.445,30.445,0,0,1-2.224-5.759,11.886,11.886,0,0,0-.548,7.376,18.421,18.421,0,0,0,2.223,4.686h.643c0-.047.005-.095.007-.142C977.8,1332.521,977.872,1330.457,977.74,1328.411Z"/></g><path class="l" d="M900.674,1211.229c1.293,3.184,3.98,8.757,8.159,9.851.7,7.065.8,25.275.5,27.066l-.3,1.792,5.075.9s.9-9.354,3.085-13.732,6.866-14.429,6.866-14.429,13.533.2,21.494-6.965-14.131-3.085-14.131-3.085l-17.015.6-8.558-4.478Z"/><g class="j"><path class="m" d="M942,1245.924c.531,1.725,7.43,24.811,4.246,44.049,6.236,8.226,17.513,5.7,17.513,5.7s1.327,29.056-.265,32.506-22.422,13.135-22.422,13.135l-11.145,4.245s-5.307-1.592-5.971-5.041.8-14.2,6.9-24.944,12.073-19.768,13-32.24,2.653-14.86-.929-16.983-7.828-.928-12.869-3.051-4.91-2.786-4.91-2.786,14.728,3.847,17.116-6.634A53.061,53.061,0,0,0,942,1245.924Z"/><path class="m" d="M894.5,1234.514c-2.388,3.184-6.965,16.717.2,23.882,2.189,10.946-2.786,11.543-3.781,13.334s-16.518,15.324-19.3,16.12a19.228,19.228,0,0,1-4.776.8l1.393-6.368s7.563-2.588,22.29-22.489c-.2-2.587-3.383-4.578-1.99-13.334S894.5,1234.514,894.5,1234.514Z"/></g></g><path class="a" d="M868.234,1287.452c2.786-2.388,5.772-2.587,6.17-35.823-.4-26.469-.8-28.459-.8-28.459s3.384.6,5.971-5.97c3.383.4,5.373,1.791,5.771-.4s-.8-1.991.2-3.185,2.588-.8,2.588-2.985-2.787-1.791-2.787-1.791,0-3.383-1.194-2.985c4.578-1.99,8.757-3.981,9.354-6.17l.127-1.49s-14.058,3.082-17.043,4.873-6.767,9.553-8.558,16.917-11.344,37.216-11.543,44.38,3.184,20.3,7.762,23.484A2.437,2.437,0,0,0,868.234,1287.452Z"/><path class="a" d="M946.248,1289.243s10.946,6.966,19.7,3.582c-5.175,8.558-22.091,31.445-25.673,36.818s-5.971,9.951-5.971,9.951l-8.358-1.194s10.746-23.683,14.926-34.231S946.248,1289.243,946.248,1289.243Z"/><path class="f" d="M904.413,1162.829c1.71-2.237-4.655,6.7-.757,16.422,2.746,6.851,6.773,6.735,6.773,6.735l-2.157-2.043a18.945,18.945,0,0,1-4.314-7.568C902.9,1172.137,902.445,1165.4,904.413,1162.829Z"/><path class="f" d="M907.108,1183.566c-.132,3.715,2.919,6.634,1.46,12.472s-10.216,10.746-10.084,18.574-.8,19.238,15.258,17.381c8.89-2.654,5.44-11.941,4.246-15.125a34.984,34.984,0,0,1-2.123-13.268c.133-5.7.265-9.354.265-9.354l-3.051-5.373Z"/><path class="a" d="M908.272,1172.364c-.908,7.265-.454,8.4-.908,13.168s-1.362,16.347,5.676,19.525c4.313,1.135,13.434-.587,16.119-3.405a19.609,19.609,0,0,0,4.541-8.628c2.5,1.363,5.9,1.59,7.492-4.767s-3.178-9.082-3.178-9.082l-6.13-13.4-2.271-6.13-5.221-2.724-10.217,6.811Z"/><path class="f" d="M927.267,1160.18c3.078-1.448-6.357,2.573-6.962,5.146a71.225,71.225,0,0,0-7.417,3.935c-3.027,1.665-4.994,7.266-4.994,7.266l-.3,6.205s-1.059-.908-2.876-5.9-3.33-13.925,2.876-18.617a20.919,20.919,0,0,1,21.341-2.724c2.725,1.816,1.665,2.876,1.665,2.876s19.233-3.456,21.622,20.426c-.455,11.049-1.593,14.727-1.593,14.727s-8.995-4.381-9.093-8.212c-.114-4.427-4.768-6.7-7.3-.454a30.546,30.546,0,0,0-1.363-7.416c-1.21-3.633-5.3-5.3-6.811-6.811a45.137,45.137,0,0,1-3.783-4.844S922.121,1162.6,927.267,1160.18Z"/><path class="f" d="M899.612,1209.77c-1.327,2.919-4.445,11.609-1.128,18.773s14.595,4.644,16.718,2.521c0,0-13,5.175-16.452-5.307C896.76,1220.715,899.612,1209.77,899.612,1209.77Z"/><path class="f" d="M947.148,1166.281a39.374,39.374,0,0,1,4.378,17.912c.155,5.712-2.388,9.553,1.99,16.319,2.769,4.28,4.379,3.98,7.762,14.031a51.955,51.955,0,0,0-5.772-10.051c-1.791-2.189-2.388-1.592-3.98-5.174-1.828-4.112-1.294-9.254-1.592-16.717A84.587,84.587,0,0,0,947.148,1166.281Z"/><path class="c" d="M910.014,1194.868l2.151-1.2a1.237,1.237,0,0,1,.564-.2c.481-.008.822.521,1.3.576.449.052.883-.332,1.32-.217a1.225,1.225,0,0,1,.463.292l1.6,1.386a.229.229,0,0,1-.006.42l-1.524,1.255a2.473,2.473,0,0,1-2.738.564,1.629,1.629,0,0,1-.984-.5c-.288-.256-.577-.513-.843-.793a7.458,7.458,0,0,1-1.168-1.359Z"/><g class="n"><path class="o" d="M909.744,1194.835a22.2,22.2,0,0,0,5.434.768l2.915.167c.119.007.272-.007.309-.121a.272.272,0,0,0-.054-.213,3.841,3.841,0,0,0-1.887-1.579,7.742,7.742,0,0,0-.971-.277l-2.29-.544a4.2,4.2,0,0,0-2.311-.106,3.131,3.131,0,0,0-.962.582,6.186,6.186,0,0,0-1.2,1.344l.88.151Z"/><path class="f" d="M912.448,1195.4a4.588,4.588,0,0,1,1.506-.329,1.547,1.547,0,0,1,1.325.665,1.407,1.407,0,0,1-1.3.625,2.993,2.993,0,0,1-1.22-.426,1.5,1.5,0,0,1-.39-.54Z"/></g><path class="p" d="M908.717,1180.256c.562.971,1.135,1.047,2.194,1.417a4.673,4.673,0,0,0,.738.113,3.557,3.557,0,0,0,.6-.085,8.666,8.666,0,0,0,2.639-.965c.162-.476-.164-.916-.47-1.316a2.579,2.579,0,0,0-1.234-.83,3.99,3.99,0,0,0-4.671,1.847"/><path class="f" d="M909.918,1178.891c.712-.8,2.4-.725,3.406-.34a1.41,1.41,0,0,1,.34.284c.261.257-.088.875-.246,1.205a2.457,2.457,0,0,1-1.938,1.522c-.862.041-1.948-1.078-1.619-1.876Z"/><path d="M910.413,1179.179c-.374.381-.008.916.391,1.271a1.257,1.257,0,0,0,1.488.067,1.623,1.623,0,0,0,.678-1.377.9.9,0,0,0-.361-.774,1.156,1.156,0,0,0-.519-.114,2.529,2.529,0,0,0-1.086.093.866.866,0,0,0-.591.834"/><path class="p" d="M912.384,1179.482a.258.258,0,0,0-.185.415.325.325,0,0,0,.5-.072.437.437,0,0,0-.108-.528"/><path d="M914.97,1180.708s-1.249-2.5-3.406-2.441a4.732,4.732,0,0,0-2.724,2.242c-.4.511-.908-.908-.908-.908a.66.66,0,0,0,.908-.17,3.8,3.8,0,0,1,3.292-1.59,2.658,2.658,0,0,1,2.611,1.788A3.807,3.807,0,0,1,914.97,1180.708Z"/><path class="p" d="M920.288,1181.208c.11-.654.792-1.027,1.406-1.278a5.168,5.168,0,0,1,2.747-.509,4.574,4.574,0,0,1,3.141,3.071c-.4-.116-.506.159-.92.2a10.066,10.066,0,0,1-2.838,0,5.452,5.452,0,0,1-2.81-1.135Z"/><path class="f" d="M921.44,1180c.171-.08.4-.344.568-.424a4.388,4.388,0,0,1,2.052-.436c.739.017,1.376.274,1.495,1a1.8,1.8,0,0,1-1.135,1.987,2.154,2.154,0,0,1-1.958-.171,2.462,2.462,0,0,1-1.05-1.7l.028-.257"/><path d="M921.814,1179.641a1.456,1.456,0,0,0,1.39,1.785,1.7,1.7,0,0,0,1.551-1.786.345.345,0,0,0-.07-.213.362.362,0,0,0-.207-.092,4.559,4.559,0,0,0-2.634.262Z"/><path class="p" d="M923.824,1180.31c-.135.047-.1.272.026.336a.562.562,0,0,0,.417-.023.36.36,0,0,0-.332-.422"/><path d="M920.288,1181.208a3.89,3.89,0,0,1,4.153-1.787,5.1,5.1,0,0,1,3.141,3.071,5.053,5.053,0,0,0,2.031-.45,3.556,3.556,0,0,1-1.986-.88c-.681-.738-.994-2.072-3.377-2.384a4.707,4.707,0,0,0-3.406,1.334A2.544,2.544,0,0,0,920.288,1181.208Z"/><path class="q" d="M935.188,1187.625a6.037,6.037,0,0,1,1.318-1.995,2.051,2.051,0,0,1,2.224-.419c1.139.6,1.04,2.294.462,3.444a7.318,7.318,0,0,1-3.222,3.223,1.122,1.122,0,0,1-1.106.1c-.322-.22-.138-.9.23-.77"/><path class="r" d="M918.118,1178.846l-2.961,5.285a3.906,3.906,0,0,1-.667.951c-.4.38-.942.571-1.378.909a1.213,1.213,0,0,0-.5,1.434,1.547,1.547,0,0,0,.57.508,9.443,9.443,0,0,0,3.1,1.449c.524.1,1.2.035,1.4-.458"/><path class="f" d="M922.309,1173.742c-.588.7-.346,1.481,1.115,1.42s4.066.269,4.941,1.687,1.3,2.283,1.3,2.283a6.465,6.465,0,0,0-1.742-4.033C926.975,1174.22,923.516,1172.315,922.309,1173.742Z"/><path class="f" d="M909.6,1177.587c.944-1.4,2.392-1.747,4.267-1.422,2.883.5,3.987-.827,3.656-1.985-.16-.556-1.079,0-2.365.455-1.183.417-3.373.226-4.567,1.087A2.967,2.967,0,0,0,909.6,1177.587Z"/><path class="q" d="M876.427,1214.44a12.93,12.93,0,0,1,2.68-1.877,2.151,2.151,0,0,1,1.18-.332,2.242,2.242,0,0,1,.842.322,27.1,27.1,0,0,1,3.867,2.6"/><path class="q" d="M876.9,1211.116a5.908,5.908,0,0,1,4.528-2.181,4.11,4.11,0,0,1,3.206,1.335,2.6,2.6,0,0,1,.069,3.291"/><path class="q" d="M876.937,1207.144a29.9,29.9,0,0,1,5.316-1.832,2.119,2.119,0,0,1,1.066-.065.763.763,0,0,1,.594.786"/></g></svg>