<svg xmlns="http://www.w3.org/2000/svg" viewBox="0 0 159.44792 106.44792"><g id="Layer_2" data-name="Layer 2"><g id="Layer_1-2" data-name="Layer 1"><path d="M106,53h53.44792a0,0,0,0,1,0,0v53.44792a0,0,0,0,1,0,0H116a10,10,0,0,1-10-10V53A0,0,0,0,1,106,53Z" transform="translate(53 212.44792) rotate(-90)" fill="#ffb800"/><path d="M53,0h53.44792a0,0,0,0,1,0,0V53.44792a0,0,0,0,1,0,0H63a10,10,0,0,1-10-10V0A0,0,0,0,1,53,0Z" transform="translate(159.44792 53.44792) rotate(180)" fill="#d54226"/><path d="M0,0H53.44792a0,0,0,0,1,0,0V53.44792a0,0,0,0,1,0,0H10a10,10,0,0,1-10-10V0A0,0,0,0,1,0,0Z" fill="#d54226"/></g></g></svg>