<svg xmlns="http://www.w3.org/2000/svg" width="89.062" height="106.874" viewBox="0 0 89.062 106.874"><defs><style>.a{fill:#ed8012;}.b{fill:#d64226;}</style></defs><g transform="translate(-1050.737 -320.621)"><path class="a" d="M10,0H35.625a0,0,0,0,1,0,0V53.437a0,0,0,0,1,0,0H0a0,0,0,0,1,0,0V10A10,10,0,0,1,10,0Z" transform="translate(1104.174 320.621)"/><path class="b" d="M0,0H43.437a10,10,0,0,1,10,10V53.437a0,0,0,0,1,0,0H0a0,0,0,0,1,0,0V0A0,0,0,0,1,0,0Z" transform="translate(1104.174 427.495) rotate(180)"/></g></svg>