<svg xmlns="http://www.w3.org/2000/svg" width="106.896" height="106.896" viewBox="0 0 106.896 106.896"><defs><style>.a{fill:#eb8012;}.b{fill:#da5620;}</style></defs><g transform="translate(-676.896 -2244.813)"><path class="a" d="M0,0H53.448a0,0,0,0,1,0,0V53.448a0,0,0,0,1,0,0H10a10,10,0,0,1-10-10V0A0,0,0,0,1,0,0Z" transform="translate(730.344 2244.813) rotate(90)"/><path class="b" d="M0,0H53.448a0,0,0,0,1,0,0V53.448a0,0,0,0,1,0,0H10a10,10,0,0,1-10-10V0A0,0,0,0,1,0,0Z" transform="translate(730.344 2351.708) rotate(-90)"/></g></svg>