<svg xmlns="http://www.w3.org/2000/svg" width="159.804" height="106.932" viewBox="0 0 159.804 106.932"><defs><style>.a{fill:#ffcd26;}.b{fill:#d44327;}</style></defs><g transform="translate(-837.86 -534.253)"><path class="a" d="M0,0H43.466a10,10,0,0,1,10,10V53.466a0,0,0,0,1,0,0H0a0,0,0,0,1,0,0V0A0,0,0,0,1,0,0Z" transform="translate(997.664 587.719) rotate(90)"/><path class="b" d="M0,0H43.466a10,10,0,0,1,10,10V53.466a0,0,0,0,1,0,0H0a0,0,0,0,1,0,0V0A0,0,0,0,1,0,0Z" transform="translate(891.326 534.253)"/><path class="b" d="M0,0H53.466a0,0,0,0,1,0,0V43.466a10,10,0,0,1-10,10H0a0,0,0,0,1,0,0V0A0,0,0,0,1,0,0Z" transform="translate(891.326 534.253) rotate(90)"/></g></svg>