<svg xmlns="http://www.w3.org/2000/svg" xmlns:xlink="http://www.w3.org/1999/xlink" width="109.608" height="28.506" viewBox="0 0 109.608 28.506"><defs><style>.a{fill:#ffb300;}.b{fill:#d44327;}.c{fill:#da5521;}.d{fill:#e1661b;}.e{fill:#e46f18;}.f{fill:#ea8012;}.g{fill:#f0900c;}.h{fill:#f7a106;}.i{fill:#ffad00;}.j{fill:url(#a);}.k{fill:url(#b);}.l{fill:url(#c);}</style><linearGradient id="a" x1="124.041" y1="94.86" x2="124.05" y2="96.027" gradientUnits="objectBoundingBox"><stop offset="0.211" stop-color="#d1d3d5"/><stop offset="0.249" stop-color="#e1e2e4"/><stop offset="0.311" stop-color="#f7f7f7"/><stop offset="0.351" stop-color="#fff"/><stop offset="0.481" stop-color="#d3d4d7"/></linearGradient><linearGradient id="b" x1="400.798" y1="305.356" x2="400.83" y2="307.511" gradientUnits="objectBoundingBox"><stop offset="0.19" stop-color="#d1d3d5"/><stop offset="0.282" stop-color="#e5e6e7"/><stop offset="0.399" stop-color="#f8f8f8"/><stop offset="0.48" stop-color="#fff"/><stop offset="0.521" stop-color="#efeff0"/><stop offset="0.591" stop-color="#dadbdd"/><stop offset="0.637" stop-color="#d3d4d7"/></linearGradient><linearGradient id="c" x1="402.365" y1="310.3" x2="402.404" y2="308.653" gradientUnits="objectBoundingBox"><stop offset="0.16" stop-color="#d1d3d5"/><stop offset="0.188" stop-color="#d8dadc"/><stop offset="0.301" stop-color="#f4f5f5"/><stop offset="0.368" stop-color="#fff"/><stop offset="0.438" stop-color="#f7f8f8"/><stop offset="0.542" stop-color="#e4e4e6"/><stop offset="0.612" stop-color="#d3d4d7"/></linearGradient></defs><g transform="translate(-142.893 -24.538)"><path class="a" d="M166.926,24.538H147.365a4.472,4.472,0,0,0-4.472,4.472v1.229h0v17.1h0v1.229a4.472,4.472,0,0,0,4.472,4.472h19.561a4.472,4.472,0,0,0,4.472-4.472V29.01A4.472,4.472,0,0,0,166.926,24.538Z"/><path class="b" d="M148.594,24.54h-1.229a4.472,4.472,0,0,0-4.472,4.472V30.24h5.7Z"/><rect class="c" width="5.701" height="5.701" transform="translate(142.893 30.24)"/><rect class="d" width="5.701" height="5.701" transform="translate(142.893 35.941)"/><rect class="e" width="5.701" height="5.701" transform="translate(142.893 41.642)"/><path class="f" d="M142.893,47.343v1.229a4.472,4.472,0,0,0,4.472,4.472h1.229v-5.7Z"/><rect class="c" width="5.701" height="5.701" transform="translate(148.594 24.54)"/><rect class="d" width="5.701" height="5.701" transform="translate(148.594 30.24)"/><rect class="e" width="5.701" height="5.701" transform="translate(148.594 35.941)"/><rect class="f" width="5.701" height="5.701" transform="translate(148.594 41.642)"/><rect class="g" width="5.701" height="5.701" transform="translate(148.594 47.343)"/><rect class="d" width="5.701" height="5.701" transform="translate(154.295 24.54)"/><rect class="e" width="5.701" height="5.701" transform="translate(154.295 30.24)"/><rect class="f" width="5.701" height="5.701" transform="translate(154.295 35.941)"/><rect class="g" width="5.701" height="5.701" transform="translate(154.295 41.642)"/><rect class="h" width="5.701" height="5.701" transform="translate(154.295 47.343)"/><rect class="e" width="5.701" height="5.701" transform="translate(159.996 24.54)"/><rect class="f" width="5.701" height="5.701" transform="translate(159.996 30.24)"/><rect class="g" width="5.701" height="5.701" transform="translate(159.996 35.941)"/><rect class="h" width="5.701" height="5.701" transform="translate(159.996 41.642)"/><rect class="i" width="5.701" height="5.701" transform="translate(159.996 47.343)"/><path class="f" d="M166.926,24.54H165.7v5.7h5.7V29.012A4.473,4.473,0,0,0,166.926,24.54Z"/><rect class="g" width="5.701" height="5.701" transform="translate(165.697 30.24)"/><rect class="h" width="5.701" height="5.701" transform="translate(165.697 35.941)"/><rect class="i" width="5.701" height="5.701" transform="translate(165.697 41.642)"/><path class="a" d="M165.7,53.044h1.229a4.473,4.473,0,0,0,4.473-4.472V47.343h-5.7Z"/><path class="j" d="M163.476,30.326c-1.217-1.131-2.237-.112-2.985.637,0,0-5.559,5.561-5.587,5.588h0l-5.588,5.587c-.749.747-1.769,1.767-.637,2.984.168.181,1.981,1.992,2.131,2.132,1.217,1.131,2.238.112,2.985-.638l5.587-5.588h0l5.588-5.586c.75-.748,1.769-1.768.638-2.985C165.422,32.258,163.675,30.511,163.476,30.326Z"/><path class="k" d="M149.048,45.5a9.507,9.507,0,0,1-.5.82,5.706,5.706,0,0,1-1.45,1.2,13.78,13.78,0,0,0-1.364.956,1.85,1.85,0,0,0-.819,1.344,1.4,1.4,0,0,0,1.2,1.2,1.849,1.849,0,0,0,1.345-.818,13.964,13.964,0,0,0,.956-1.365,5.724,5.724,0,0,1,1.205-1.45c.126-.093.546-.354.821-.5C150.047,46.5,149.44,45.894,149.048,45.5Z"/><path class="l" d="M168.179,26.561a1.849,1.849,0,0,0-1.344.818,13.911,13.911,0,0,0-.956,1.365,5.707,5.707,0,0,1-1.206,1.45c-.126.093-.546.354-.82.5.295.293.707.7,1.059,1.057l.331.333a9.445,9.445,0,0,1,.5-.82,5.689,5.689,0,0,1,1.45-1.206,13.913,13.913,0,0,0,1.365-.956,1.849,1.849,0,0,0,.818-1.344,1.4,1.4,0,0,0-1.2-1.2Z"/><path class="b" d="M189.454,45.486q-.271-.792-.562-1.565t-.562-1.585h-5.655q-.271.812-.553,1.594t-.552,1.556h-2.531q.751-2.145,1.428-3.961t1.323-3.439q.646-1.623,1.283-3.092t1.313-2.9h2.324q.676,1.429,1.314,2.9t1.285,3.092q.648,1.622,1.334,3.439t1.439,3.961Zm-3.952-10.8q-.444,1.024-1.014,2.492T183.3,40.366h4.4q-.618-1.72-1.2-3.208T185.5,34.685Z"/><path class="b" d="M196.689,32.1q.426.733.947,1.8t1.063,2.231q.54,1.17,1.072,2.377t.976,2.232l.966-2.232q.522-1.208,1.063-2.377t1.062-2.231q.523-1.064.947-1.8h2.194q.177,1.469.334,3.12T207.6,38.6q.126,1.729.235,3.477t.188,3.411h-2.4q-.08-2.337-.187-4.811t-.325-4.792q-.213.444-.5,1.063t-.619,1.342q-.328.725-.666,1.5l-.657,1.5q-.319.724-.59,1.353t-.464,1.072H199.8q-.192-.444-.464-1.082t-.589-1.362l-.657-1.5q-.337-.774-.666-1.488t-.619-1.343q-.289-.629-.5-1.053-.217,2.318-.325,4.792t-.187,4.811h-2.4q.079-1.662.187-3.44t.236-3.526q.128-1.748.285-3.391t.335-3.033Z"/><path class="b" d="M210.842,32.1h2.435v13.39h-2.435Z"/><path class="b" d="M220.986,38.028q.87-1.449,1.7-2.937t1.507-2.995H226.9q-1.083,2.047-2.251,4.067t-2.5,4.067v5.256h-2.434V40.269q-1.333-2.067-2.512-4.1T214.938,32.1h2.86q.676,1.508,1.488,2.995T220.986,38.028Z"/><path class="b" d="M236.1,45.486q-.271-.792-.562-1.565t-.561-1.585h-5.656q-.271.812-.552,1.594t-.552,1.556h-2.532q.753-2.145,1.429-3.961t1.322-3.439q.646-1.623,1.284-3.092t1.313-2.9h2.324q.675,1.429,1.314,2.9t1.284,3.092q.648,1.622,1.334,3.439t1.44,3.961Zm-3.951-10.8q-.445,1.024-1.015,2.492t-1.188,3.189h4.406q-.62-1.72-1.2-3.208T232.145,34.685Z"/><path class="b" d="M249.872,45.486q-.271-.792-.562-1.565t-.561-1.585h-5.656q-.271.812-.552,1.594t-.552,1.556h-2.532q.753-2.145,1.429-3.961t1.322-3.439q.647-1.623,1.284-3.092t1.313-2.9h2.324q.677,1.429,1.314,2.9t1.285,3.092q.646,1.622,1.333,3.439t1.44,3.961Zm-3.951-10.8q-.446,1.024-1.015,2.492t-1.188,3.189h4.406q-.619-1.72-1.2-3.208T245.921,34.685Z"/></g></svg>