<svg xmlns="http://www.w3.org/2000/svg" viewBox="0 0 159.44792 106.44792"><g id="Layer_2" data-name="Layer 2"><g id="Layer_1-2" data-name="Layer 1"><path d="M106,0h53.44792a0,0,0,0,1,0,0V53.44792a0,0,0,0,1,0,0H116a10,10,0,0,1-10-10V0A0,0,0,0,1,106,0Z" transform="translate(265.44792 53.44792) rotate(180)" fill="#d54226"/><path d="M26.48438,26.51562H79.93229a0,0,0,0,1,0,0V132.93229a0,0,0,0,1,0,0H36.48437a10,10,0,0,1-10-10V26.51562A0,0,0,0,1,26.48438,26.51562Z" transform="translate(132.93229 26.51562) rotate(90)" fill="#ffb800"/></g></g></svg>