<svg xmlns="http://www.w3.org/2000/svg" width="16.635" height="16.632" viewBox="0 0 16.635 16.632"><defs><style>.a{fill:#ffcd26;}</style></defs><g transform="translate(-499.855 -684.606)"><path class="a" d="M499.855,692.915a8.317,8.317,0,1,1,8.3,8.323A8.327,8.327,0,0,1,499.855,692.915Zm8.476,4.005a9.44,9.44,0,0,0,1.1-.244,3.649,3.649,0,0,0,2.141-1.876.311.311,0,1,0-.543-.3c-.028.049-.052.1-.08.148a3.045,3.045,0,0,1-2.383,1.594,3.106,3.106,0,0,1-3.234-1.7.566.566,0,0,0-.094-.139.29.29,0,0,0-.393-.026.307.307,0,0,0-.071.433A3.9,3.9,0,0,0,508.331,696.92Zm-1.545-4.277c-.049-.119-.074-.2-.111-.266a2.057,2.057,0,0,0-3.615.016.315.315,0,0,0,.088.471.319.319,0,0,0,.45-.165c.013-.021.025-.043.037-.065a1.442,1.442,0,0,1,2.473,0c.032.054.052.133.1.155a.576.576,0,0,0,.334.086C506.637,692.851,506.707,692.723,506.786,692.643Zm4.768-1.336a2.128,2.128,0,0,0-1.887,1.071c-.117.217-.087.393.081.489s.336.026.459-.184a1.439,1.439,0,0,1,2.53,0c.121.21.291.277.458.18s.2-.276.079-.488A2.037,2.037,0,0,0,511.554,691.307Z"/><path d="M508.331,696.92a3.9,3.9,0,0,1-3.555-2.11.307.307,0,0,1,.071-.433.29.29,0,0,1,.393.026.566.566,0,0,1,.094.139,3.106,3.106,0,0,0,3.234,1.7,3.045,3.045,0,0,0,2.383-1.594c.028-.048.052-.1.08-.148a.311.311,0,1,1,.543.3,3.649,3.649,0,0,1-2.141,1.876A9.44,9.44,0,0,1,508.331,696.92Z"/><path d="M506.786,692.643c-.079.08-.149.208-.245.233a.576.576,0,0,1-.334-.086c-.047-.022-.067-.1-.1-.155a1.442,1.442,0,0,0-2.473,0c-.012.022-.024.044-.037.065a.319.319,0,0,1-.45.165.315.315,0,0,1-.088-.471,2.057,2.057,0,0,1,3.615-.016C506.712,692.447,506.737,692.524,506.786,692.643Z"/><path d="M511.554,691.307a2.037,2.037,0,0,1,1.72,1.069c.124.212.089.391-.079.488s-.337.03-.458-.18a1.439,1.439,0,0,0-2.53,0c-.123.21-.292.278-.459.184s-.2-.272-.081-.489A2.128,2.128,0,0,1,511.554,691.307Z"/></g></svg>